<svg width="20" height="18" viewBox="0 0 20 18" fill="none" xmlns="http://www.w3.org/2000/svg">
<path d="M2 18C1.45 18 0.979167 17.8042 0.5875 17.4125C0.195833 17.0208 0 16.55 0 16V2C0 1.45 0.195833 0.979167 0.5875 0.5875C0.979167 0.195833 1.45 0 2 0H8C8.55 0 9.02083 0.195833 9.4125 0.5875C9.80417 0.979167 10 1.45 10 2V4H18C18.55 4 19.0208 4.19583 19.4125 4.5875C19.8042 4.97917 20 5.45 20 6V16C20 16.55 19.8042 17.0208 19.4125 17.4125C19.0208 17.8042 18.55 18 18 18H2ZM2 16H8V14H2V16ZM2 12H8V10H2V12ZM2 8H8V6H2V8ZM2 4H8V2H2V4ZM10 16H18V6H10V16ZM13 10C12.7167 10 12.4792 9.90417 12.2875 9.7125C12.0958 9.52083 12 9.28333 12 9C12 8.71667 12.0958 8.47917 12.2875 8.2875C12.4792 8.09583 12.7167 8 13 8H15C15.2833 8 15.5208 8.09583 15.7125 8.2875C15.9042 8.47917 16 8.71667 16 9C16 9.28333 15.9042 9.52083 15.7125 9.7125C15.5208 9.90417 15.2833 10 15 10H13ZM13 14C12.7167 14 12.4792 13.9042 12.2875 13.7125C12.0958 13.5208 12 13.2833 12 13C12 12.7167 12.0958 12.4792 12.2875 12.2875C12.4792 12.0958 12.7167 12 13 12H15C15.2833 12 15.5208 12.0958 15.7125 12.2875C15.9042 12.4792 16 12.7167 16 13C16 13.2833 15.9042 13.5208 15.7125 13.7125C15.5208 13.9042 15.2833 14 15 14H13Z" fill="#1D1B20"/>
</svg>
