<svg width="16" height="17" viewBox="0 0 16 17" fill="none" xmlns="http://www.w3.org/2000/svg">
<path d="M5.5 15.6667V12.3333C4.79167 12.2778 4.09722 12.2014 3.41667 12.1042C2.73611 12.0069 2.05556 11.8819 1.375 11.7292C1.13889 11.6736 0.951389 11.5417 0.8125 11.3333C0.673611 11.125 0.638889 10.9028 0.708333 10.6667C0.777778 10.4306 0.920139 10.2569 1.13542 10.1458C1.35069 10.0347 1.57639 10.0069 1.8125 10.0625C2.82639 10.2986 3.85069 10.4583 4.88542 10.5417C5.92014 10.625 6.95833 10.6667 8 10.6667C9.04167 10.6667 10.0799 10.625 11.1146 10.5417C12.1493 10.4583 13.1736 10.2986 14.1875 10.0625C14.4375 10.0069 14.6667 10.0347 14.875 10.1458C15.0833 10.2569 15.2222 10.4306 15.2917 10.6667C15.3611 10.9028 15.3229 11.125 15.1771 11.3333C15.0312 11.5417 14.8403 11.6736 14.6042 11.7292C13.9236 11.8819 13.2431 12.0069 12.5625 12.1042C11.8819 12.2014 11.1944 12.2778 10.5 12.3333V15.6667C10.5 15.9028 10.4201 16.1007 10.2604 16.2604C10.1007 16.4201 9.90278 16.5 9.66667 16.5H6.33333C6.09722 16.5 5.89931 16.4201 5.73958 16.2604C5.57986 16.1007 5.5 15.9028 5.5 15.6667ZM8 9.83334C7.52778 9.83334 7.13194 9.67362 6.8125 9.35417C6.49306 9.03473 6.33333 8.63889 6.33333 8.16667C6.33333 7.70834 6.49306 7.31598 6.8125 6.98959C7.13194 6.6632 7.52778 6.50001 8 6.50001C8.45833 6.50001 8.85069 6.6632 9.17708 6.98959C9.50347 7.31598 9.66667 7.70834 9.66667 8.16667C9.66667 8.63889 9.50347 9.03473 9.17708 9.35417C8.85069 9.67362 8.45833 9.83334 8 9.83334ZM1.75 7.33334C1.38889 7.33334 1.09028 7.21528 0.854167 6.97917C0.618056 6.74306 0.5 6.44445 0.5 6.08334C0.5 5.73612 0.618056 5.44098 0.854167 5.19792C1.09028 4.95487 1.38889 4.83334 1.75 4.83334C2.09722 4.83334 2.39236 4.95487 2.63542 5.19792C2.87847 5.44098 3 5.73612 3 6.08334C3 6.44445 2.87847 6.74306 2.63542 6.97917C2.39236 7.21528 2.09722 7.33334 1.75 7.33334ZM14.25 7.33334C13.8889 7.33334 13.5903 7.21528 13.3542 6.97917C13.1181 6.74306 13 6.44445 13 6.08334C13 5.73612 13.1181 5.44098 13.3542 5.19792C13.5903 4.95487 13.8889 4.83334 14.25 4.83334C14.5972 4.83334 14.8924 4.95487 15.1354 5.19792C15.3785 5.44098 15.5 5.73612 15.5 6.08334C15.5 6.44445 15.3785 6.74306 15.1354 6.97917C14.8924 7.21528 14.5972 7.33334 14.25 7.33334ZM4.04167 4.20834C3.68056 4.20834 3.38194 4.09028 3.14583 3.85417C2.90972 3.61806 2.79167 3.31945 2.79167 2.95834C2.79167 2.61112 2.90972 2.31598 3.14583 2.07292C3.38194 1.82987 3.68056 1.70834 4.04167 1.70834C4.38889 1.70834 4.68403 1.82987 4.92708 2.07292C5.17014 2.31598 5.29167 2.61112 5.29167 2.95834C5.29167 3.31945 5.17014 3.61806 4.92708 3.85417C4.68403 4.09028 4.38889 4.20834 4.04167 4.20834ZM11.9583 4.20834C11.5972 4.20834 11.2986 4.09028 11.0625 3.85417C10.8264 3.61806 10.7083 3.31945 10.7083 2.95834C10.7083 2.61112 10.8264 2.31598 11.0625 2.07292C11.2986 1.82987 11.5972 1.70834 11.9583 1.70834C12.3056 1.70834 12.6007 1.82987 12.8438 2.07292C13.0868 2.31598 13.2083 2.61112 13.2083 2.95834C13.2083 3.31945 13.0868 3.61806 12.8438 3.85417C12.6007 4.09028 12.3056 4.20834 11.9583 4.20834ZM8 3.16667C7.63889 3.16667 7.34028 3.04862 7.10417 2.81251C6.86806 2.57639 6.75 2.27778 6.75 1.91667C6.75 1.56945 6.86806 1.27431 7.10417 1.03126C7.34028 0.7882 7.63889 0.666672 8 0.666672C8.34722 0.666672 8.64236 0.7882 8.88542 1.03126C9.12847 1.27431 9.25 1.56945 9.25 1.91667C9.25 2.27778 9.12847 2.57639 8.88542 2.81251C8.64236 3.04862 8.34722 3.16667 8 3.16667Z" fill="#191B24"/>
</svg>
