<svg width="21" height="22" viewBox="0 0 21 22" fill="none" xmlns="http://www.w3.org/2000/svg">
<path d="M12.95 19.4L18.9 17.55C18.8167 17.4 18.6958 17.2708 18.5375 17.1625C18.3792 17.0542 18.2 17 18 17H12.95C12.5 17 12.1417 16.9833 11.875 16.95C11.6083 16.9167 11.3333 16.85 11.05 16.75L9.625 16.275C9.35833 16.1917 9.16667 16.025 9.05 15.775C8.93333 15.525 8.91667 15.2667 9 15C9.08333 14.7333 9.24583 14.5375 9.4875 14.4125C9.72917 14.2875 9.98333 14.2667 10.25 14.35L11.3 14.7C11.5833 14.7833 11.9042 14.85 12.2625 14.9C12.6208 14.95 13.1083 14.9833 13.725 15H14C14 14.8167 13.9458 14.6417 13.8375 14.475C13.7292 14.3083 13.6 14.2 13.45 14.15L7.6 12H6V17.5L12.95 19.4ZM12.425 21.35L6 19.55C5.86667 19.9833 5.60417 20.3333 5.2125 20.6C4.82083 20.8667 4.41667 21 4 21H2C1.45 21 0.979167 20.8042 0.5875 20.4125C0.195833 20.0208 0 19.55 0 19V12C0 11.45 0.195833 10.9792 0.5875 10.5875C0.979167 10.1958 1.45 10 2 10H7.6C7.71667 10 7.83333 10.0125 7.95 10.0375C8.06667 10.0625 8.175 10.0917 8.275 10.125L14.15 12.3C14.7 12.5 15.1458 12.85 15.4875 13.35C15.8292 13.85 16 14.4 16 15H18C18.8333 15 19.5417 15.275 20.125 15.825C20.7083 16.375 21 17.1 21 18C21 18.3667 20.9042 18.6542 20.7125 18.8625C20.5208 19.0708 20.225 19.2417 19.825 19.375L13.575 21.325C13.3917 21.3917 13.2 21.425 13 21.425C12.8 21.425 12.6083 21.4 12.425 21.35ZM2 19H4V12H2V19ZM13 0.950012C13.2 0.950012 13.3958 0.979179 13.5875 1.03751C13.7792 1.09585 13.9667 1.19168 14.15 1.32501L19.15 4.90001C19.4167 5.08335 19.625 5.31668 19.775 5.60001C19.925 5.88335 20 6.19168 20 6.52501V12C20 12.2833 19.9042 12.5208 19.7125 12.7125C19.5208 12.9042 19.2833 13 19 13C18.7167 13 18.4792 12.9042 18.2875 12.7125C18.0958 12.5208 18 12.2833 18 12V6.50001L13 3.00001L8 6.50001V7.00001C8 7.28335 7.90417 7.52085 7.7125 7.71251C7.52083 7.90418 7.28333 8.00001 7 8.00001C6.71667 8.00001 6.47917 7.90418 6.2875 7.71251C6.09583 7.52085 6 7.28335 6 7.00001V6.52501C6 6.19168 6.075 5.88335 6.225 5.60001C6.375 5.31668 6.58333 5.08335 6.85 4.90001L11.85 1.32501C12.0333 1.19168 12.2208 1.09585 12.4125 1.03751C12.6042 0.979179 12.8 0.950012 13 0.950012ZM12 7.00001C12.1333 7.00001 12.25 6.95001 12.35 6.85001C12.45 6.75001 12.5 6.63335 12.5 6.50001C12.5 6.36668 12.45 6.25001 12.35 6.15001C12.25 6.05001 12.1333 6.00001 12 6.00001C11.8667 6.00001 11.75 6.05001 11.65 6.15001C11.55 6.25001 11.5 6.36668 11.5 6.50001C11.5 6.63335 11.55 6.75001 11.65 6.85001C11.75 6.95001 11.8667 7.00001 12 7.00001ZM14 7.00001C14.1333 7.00001 14.25 6.95001 14.35 6.85001C14.45 6.75001 14.5 6.63335 14.5 6.50001C14.5 6.36668 14.45 6.25001 14.35 6.15001C14.25 6.05001 14.1333 6.00001 14 6.00001C13.8667 6.00001 13.75 6.05001 13.65 6.15001C13.55 6.25001 13.5 6.36668 13.5 6.50001C13.5 6.63335 13.55 6.75001 13.65 6.85001C13.75 6.95001 13.8667 7.00001 14 7.00001ZM12 9.00001C12.1333 9.00001 12.25 8.95001 12.35 8.85001C12.45 8.75001 12.5 8.63335 12.5 8.50001C12.5 8.36668 12.45 8.25001 12.35 8.15001C12.25 8.05001 12.1333 8.00001 12 8.00001C11.8667 8.00001 11.75 8.05001 11.65 8.15001C11.55 8.25001 11.5 8.36668 11.5 8.50001C11.5 8.63335 11.55 8.75001 11.65 8.85001C11.75 8.95001 11.8667 9.00001 12 9.00001ZM14 9.00001C14.1333 9.00001 14.25 8.95001 14.35 8.85001C14.45 8.75001 14.5 8.63335 14.5 8.50001C14.5 8.36668 14.45 8.25001 14.35 8.15001C14.25 8.05001 14.1333 8.00001 14 8.00001C13.8667 8.00001 13.75 8.05001 13.65 8.15001C13.55 8.25001 13.5 8.36668 13.5 8.50001C13.5 8.63335 13.55 8.75001 13.65 8.85001C13.75 8.95001 13.8667 9.00001 14 9.00001Z" fill="#1D1B20"/>
</svg>
