<svg width="16" height="16" viewBox="0 0 16 16" fill="none" xmlns="http://www.w3.org/2000/svg">
<path d="M6.75 7.58333H3.83333C3.59722 7.58333 3.39931 7.50347 3.23958 7.34375C3.07986 7.18403 3 6.98611 3 6.75V3.83333C3 3.59722 3.07986 3.39931 3.23958 3.23958C3.39931 3.07986 3.59722 3 3.83333 3H6.75C6.98611 3 7.18403 3.07986 7.34375 3.23958C7.50347 3.39931 7.58333 3.59722 7.58333 3.83333V6.75C7.58333 6.98611 7.50347 7.18403 7.34375 7.34375C7.18403 7.50347 6.98611 7.58333 6.75 7.58333ZM6.75 13H3.83333C3.59722 13 3.39931 12.9201 3.23958 12.7604C3.07986 12.6007 3 12.4028 3 12.1667V9.25C3 9.01389 3.07986 8.81597 3.23958 8.65625C3.39931 8.49653 3.59722 8.41667 3.83333 8.41667H6.75C6.98611 8.41667 7.18403 8.49653 7.34375 8.65625C7.50347 8.81597 7.58333 9.01389 7.58333 9.25V12.1667C7.58333 12.4028 7.50347 12.6007 7.34375 12.7604C7.18403 12.9201 6.98611 13 6.75 13ZM12.1667 7.58333H9.25C9.01389 7.58333 8.81597 7.50347 8.65625 7.34375C8.49653 7.18403 8.41667 6.98611 8.41667 6.75V3.83333C8.41667 3.59722 8.49653 3.39931 8.65625 3.23958C8.81597 3.07986 9.01389 3 9.25 3H12.1667C12.4028 3 12.6007 3.07986 12.7604 3.23958C12.9201 3.39931 13 3.59722 13 3.83333V6.75C13 6.98611 12.9201 7.18403 12.7604 7.34375C12.6007 7.50347 12.4028 7.58333 12.1667 7.58333ZM12.1667 13H9.25C9.01389 13 8.81597 12.9201 8.65625 12.7604C8.49653 12.6007 8.41667 12.4028 8.41667 12.1667V9.25C8.41667 9.01389 8.49653 8.81597 8.65625 8.65625C8.81597 8.49653 9.01389 8.41667 9.25 8.41667H12.1667C12.4028 8.41667 12.6007 8.49653 12.7604 8.65625C12.9201 8.81597 13 9.01389 13 9.25V12.1667C13 12.4028 12.9201 12.6007 12.7604 12.7604C12.6007 12.9201 12.4028 13 12.1667 13ZM4.66667 5.91667H5.91667V4.66667H4.66667V5.91667ZM10.0833 5.91667H11.3333V4.66667H10.0833V5.91667ZM4.66667 11.3333H5.91667V10.0833H4.66667V11.3333ZM10.0833 11.3333H11.3333V10.0833H10.0833V11.3333ZM2.16667 15.5C1.70833 15.5 1.31597 15.3368 0.989583 15.0104C0.663194 14.684 0.5 14.2917 0.5 13.8333V2.16667C0.5 1.70833 0.663194 1.31597 0.989583 0.989583C1.31597 0.663194 1.70833 0.5 2.16667 0.5H13.8333C14.2917 0.5 14.684 0.663194 15.0104 0.989583C15.3368 1.31597 15.5 1.70833 15.5 2.16667V13.8333C15.5 14.2917 15.3368 14.684 15.0104 15.0104C14.684 15.3368 14.2917 15.5 13.8333 15.5H2.16667ZM2.16667 13.8333H13.8333V2.16667H2.16667V13.8333Z" fill="#191B24"/>
</svg>
