<svg width="19" height="18" viewBox="0 0 19 18" fill="none" xmlns="http://www.w3.org/2000/svg">
<path d="M11.6249 16L16.5833 14.4583C16.5138 14.3333 16.4131 14.2257 16.2812 14.1354C16.1492 14.0451 15.9999 14 15.8333 14H11.6249C11.2499 14 10.9513 13.9861 10.7291 13.9583C10.5069 13.9306 10.2777 13.875 10.0416 13.7917L8.85409 13.3958C8.63186 13.3264 8.47214 13.1875 8.37492 12.9792C8.2777 12.7708 8.26381 12.5556 8.33325 12.3333C8.4027 12.1111 8.53811 11.9479 8.7395 11.8438C8.94089 11.7396 9.1527 11.7222 9.37492 11.7917L10.2499 12.0833C10.486 12.1528 10.7534 12.2083 11.052 12.25C11.3506 12.2917 11.7569 12.3194 12.2708 12.3333H12.4999C12.4999 12.1806 12.4548 12.0347 12.3645 11.8958C12.2742 11.7569 12.1666 11.6667 12.0416 11.625L7.16659 9.83334H5.83325V14.4167L11.6249 16ZM11.1874 17.625L5.83325 16.125C5.72214 16.4861 5.50339 16.7778 5.177 17C4.85061 17.2222 4.51381 17.3333 4.16659 17.3333H2.49992C2.04159 17.3333 1.64922 17.1701 1.32284 16.8438C0.996446 16.5174 0.833252 16.125 0.833252 15.6667V9.83334C0.833252 9.37501 0.996446 8.98264 1.32284 8.65626C1.64922 8.32987 2.04159 8.16667 2.49992 8.16667H7.16659C7.26381 8.16667 7.36103 8.17709 7.45825 8.19792C7.55547 8.21876 7.64575 8.24306 7.72909 8.27084L12.6249 10.0833C13.0833 10.25 13.4548 10.5417 13.7395 10.9583C14.0242 11.375 14.1666 11.8333 14.1666 12.3333H15.8333C16.5277 12.3333 17.118 12.5625 17.6041 13.0208C18.0902 13.4792 18.3333 14.0833 18.3333 14.8333C18.3333 15.1389 18.2534 15.3785 18.0937 15.5521C17.9339 15.7257 17.6874 15.8681 17.3541 15.9792L12.1458 17.6042C11.993 17.6597 11.8333 17.6875 11.6666 17.6875C11.4999 17.6875 11.3402 17.6667 11.1874 17.625ZM2.49992 15.6667H4.16659V9.83334H2.49992V15.6667ZM13.3333 9.16667C13.1249 9.16667 12.9201 9.12848 12.7187 9.05209C12.5173 8.9757 12.3333 8.86112 12.1666 8.70834L9.87492 6.45834C9.44436 6.04167 9.07978 5.57987 8.78117 5.07292C8.48256 4.56598 8.33325 4.01389 8.33325 3.41667C8.33325 2.65278 8.60061 2.00348 9.13534 1.46876C9.67006 0.934033 10.3194 0.666672 11.0833 0.666672C11.5277 0.666672 11.9444 0.760422 12.3333 0.947922C12.7221 1.13542 13.0555 1.38889 13.3333 1.70834C13.611 1.38889 13.9444 1.13542 14.3333 0.947922C14.7221 0.760422 15.1388 0.666672 15.5833 0.666672C16.3471 0.666672 16.9964 0.934033 17.5312 1.46876C18.0659 2.00348 18.3333 2.65278 18.3333 3.41667C18.3333 4.01389 18.1874 4.56598 17.8958 5.07292C17.6041 5.57987 17.243 6.04167 16.8124 6.45834L14.4999 8.70834C14.3333 8.86112 14.1492 8.9757 13.9478 9.05209C13.7464 9.12848 13.5416 9.16667 13.3333 9.16667ZM13.3333 7.50001L15.6041 5.27084C15.868 5.00695 16.111 4.7257 16.3333 4.42709C16.5555 4.12848 16.6666 3.79167 16.6666 3.41667C16.6666 3.11112 16.5624 2.85417 16.3541 2.64584C16.1458 2.43751 15.8888 2.33334 15.5833 2.33334C15.3888 2.33334 15.2048 2.37153 15.0312 2.44792C14.8576 2.52431 14.7083 2.63889 14.5833 2.79167L13.9791 3.52084C13.8124 3.71528 13.5971 3.81251 13.3333 3.81251C13.0694 3.81251 12.8541 3.71528 12.6874 3.52084L12.0833 2.79167C11.9583 2.63889 11.8089 2.52431 11.6353 2.44792C11.4617 2.37153 11.2777 2.33334 11.0833 2.33334C10.7777 2.33334 10.5208 2.43751 10.3124 2.64584C10.1041 2.85417 9.99992 3.11112 9.99992 3.41667C9.99992 3.79167 10.111 4.12848 10.3333 4.42709C10.5555 4.7257 10.7985 5.00695 11.0624 5.27084L13.3333 7.50001Z" fill="#191B24"/>
</svg>
