<svg width="18" height="18" viewBox="0 0 18 18" fill="none" xmlns="http://www.w3.org/2000/svg">
<path d="M2.33329 17.3333C1.87496 17.3333 1.4826 17.1701 1.15621 16.8438C0.82982 16.5174 0.666626 16.125 0.666626 15.6667V8.41667C0.666626 8.08334 0.756904 7.77778 0.937459 7.50001C1.11801 7.22223 1.36801 7.01389 1.68746 6.87501L5.33329 5.33334C5.61107 5.22223 5.87496 5.24306 6.12496 5.39584C6.37496 5.54862 6.49996 5.77778 6.49996 6.08334V6.50001L9.52079 5.29167C9.79857 5.18056 10.059 5.20834 10.302 5.37501C10.5451 5.54167 10.6666 5.77084 10.6666 6.06251V7.33334H17.3333V15.6667C17.3333 16.125 17.1701 16.5174 16.8437 16.8438C16.5173 17.1701 16.125 17.3333 15.6666 17.3333H2.33329ZM2.33329 15.6667H15.6666V9.00001H8.99996V7.29167L4.83329 8.95834V7.33334L2.33329 8.43751V15.6667ZM8.16663 14H9.83329V10.6667H8.16663V14ZM4.83329 14H6.49996V10.6667H4.83329V14ZM11.5 14H13.1666V10.6667H11.5V14ZM17.3333 7.33334H13.1666L13.9166 1.39584C13.9444 1.18751 14.0347 1.01389 14.1875 0.875005C14.3402 0.736116 14.5208 0.666672 14.7291 0.666672H15.7708C15.9791 0.666672 16.1597 0.736116 16.3125 0.875005C16.4652 1.01389 16.5555 1.18751 16.5833 1.39584L17.3333 7.33334Z" fill="#191B24"/>
</svg>
