<svg width="18" height="14" viewBox="0 0 18 14" fill="none" xmlns="http://www.w3.org/2000/svg">
<path d="M12.75 5.12499C12.4028 5.12499 12.1076 5.00347 11.8646 4.76041C11.6215 4.51736 11.5 4.22222 11.5 3.87499C11.5 3.52777 11.6215 3.23263 11.8646 2.98958C12.1076 2.74652 12.4028 2.62499 12.75 2.62499C13.0972 2.62499 13.3924 2.74652 13.6354 2.98958C13.8785 3.23263 14 3.52777 14 3.87499C14 4.22222 13.8785 4.51736 13.6354 4.76041C13.3924 5.00347 13.0972 5.12499 12.75 5.12499ZM5.25 5.12499C4.90278 5.12499 4.60764 5.00347 4.36458 4.76041C4.12153 4.51736 4 4.22222 4 3.87499C4 3.52777 4.12153 3.23263 4.36458 2.98958C4.60764 2.74652 4.90278 2.62499 5.25 2.62499C5.59722 2.62499 5.89236 2.74652 6.13542 2.98958C6.37847 3.23263 6.5 3.52777 6.5 3.87499C6.5 4.22222 6.37847 4.51736 6.13542 4.76041C5.89236 5.00347 5.59722 5.12499 5.25 5.12499ZM9 7.41666C8.65278 7.41666 8.35764 7.29513 8.11458 7.05208C7.87153 6.80902 7.75 6.51388 7.75 6.16666C7.75 5.81944 7.87153 5.5243 8.11458 5.28124C8.35764 5.03819 8.65278 4.91666 9 4.91666C9.34722 4.91666 9.64236 5.03819 9.88542 5.28124C10.1285 5.5243 10.25 5.81944 10.25 6.16666C10.25 6.51388 10.1285 6.80902 9.88542 7.05208C9.64236 7.29513 9.34722 7.41666 9 7.41666ZM9 2.83333C8.65278 2.83333 8.35764 2.7118 8.11458 2.46874C7.87153 2.22569 7.75 1.93055 7.75 1.58333C7.75 1.23611 7.87153 0.940967 8.11458 0.697912C8.35764 0.454856 8.65278 0.333328 9 0.333328C9.34722 0.333328 9.64236 0.454856 9.88542 0.697912C10.1285 0.940967 10.25 1.23611 10.25 1.58333C10.25 1.93055 10.1285 2.22569 9.88542 2.46874C9.64236 2.7118 9.34722 2.83333 9 2.83333ZM9 13.6667C8.72222 13.6667 8.44097 13.6458 8.15625 13.6042C7.87153 13.5625 7.59722 13.5069 7.33333 13.4375V10.4583C7.33333 9.97222 7.49653 9.55208 7.82292 9.19791C8.14931 8.84374 8.54167 8.66666 9 8.66666C9.45833 8.66666 9.85069 8.84374 10.1771 9.19791C10.5035 9.55208 10.6667 9.97222 10.6667 10.4583V13.4375C10.4028 13.5069 10.1285 13.5625 9.84375 13.6042C9.55903 13.6458 9.27778 13.6667 9 13.6667ZM6.08333 13C5.80556 12.8889 5.53819 12.7639 5.28125 12.625C5.02431 12.4861 4.77778 12.3333 4.54167 12.1667C4.15278 11.8889 3.84375 11.5278 3.61458 11.0833C3.38542 10.6389 3.27083 10.1667 3.27083 9.66666C3.27083 9.30555 3.23264 8.96874 3.15625 8.65624C3.07986 8.34374 2.94444 8.04861 2.75 7.77083C2.61111 7.59027 2.35069 7.31597 1.96875 6.94791C1.58681 6.57986 1.23611 6.23611 0.916667 5.91666C0.763889 5.76388 0.6875 5.56944 0.6875 5.33333C0.6875 5.09722 0.763889 4.90277 0.916667 4.74999C1.06944 4.59722 1.26389 4.52083 1.5 4.52083C1.73611 4.52083 1.93056 4.59722 2.08333 4.74999L5.27083 7.77083C5.54861 8.02083 5.75347 8.31597 5.88542 8.65624C6.01736 8.99652 6.08333 9.34722 6.08333 9.70833V13ZM11.9167 13V9.70833C11.9167 9.34722 11.9861 8.99305 12.125 8.64583C12.2639 8.29861 12.4653 8.00694 12.7292 7.77083L15.9167 4.74999C16.0833 4.59722 16.2812 4.52083 16.5104 4.52083C16.7396 4.52083 16.9306 4.59722 17.0833 4.74999C17.2361 4.90277 17.3125 5.09722 17.3125 5.33333C17.3125 5.56944 17.2361 5.76388 17.0833 5.91666C16.7639 6.23611 16.4132 6.57638 16.0312 6.93749C15.6493 7.29861 15.3889 7.57638 15.25 7.77083C15.0556 8.04861 14.9201 8.34374 14.8438 8.65624C14.7674 8.96874 14.7292 9.30555 14.7292 9.66666C14.7292 10.1667 14.6146 10.6424 14.3854 11.0937C14.1562 11.5451 13.8403 11.9097 13.4375 12.1875C13.2153 12.3403 12.9757 12.4861 12.7188 12.625C12.4618 12.7639 12.1944 12.8889 11.9167 13Z" fill="#191B24"/>
</svg>
