<svg width="18" height="16" viewBox="0 0 18 16" fill="none" xmlns="http://www.w3.org/2000/svg">
<path d="M3.99996 15.6667C3.76385 15.6667 3.56593 15.5868 3.40621 15.4271C3.24649 15.2674 3.16663 15.0695 3.16663 14.8333C3.16663 14.5972 3.24649 14.3993 3.40621 14.2396C3.56593 14.0799 3.76385 14 3.99996 14H14C14.2361 14 14.434 14.0799 14.5937 14.2396C14.7534 14.3993 14.8333 14.5972 14.8333 14.8333C14.8333 15.0695 14.7534 15.2674 14.5937 15.4271C14.434 15.5868 14.2361 15.6667 14 15.6667H3.99996ZM4.58329 12.75C4.18052 12.75 3.82288 12.6181 3.51038 12.3542C3.19788 12.0903 3.0069 11.7569 2.93746 11.3542L2.10413 6.06251C2.07635 6.06251 2.0451 6.06598 2.01038 6.07292C1.97565 6.07987 1.9444 6.08334 1.91663 6.08334C1.5694 6.08334 1.27426 5.96181 1.03121 5.71876C0.788154 5.4757 0.666626 5.18056 0.666626 4.83334C0.666626 4.48612 0.788154 4.19098 1.03121 3.94792C1.27426 3.70487 1.5694 3.58334 1.91663 3.58334C2.26385 3.58334 2.55899 3.70487 2.80204 3.94792C3.0451 4.19098 3.16663 4.48612 3.16663 4.83334C3.16663 4.93056 3.15621 5.02084 3.13538 5.10417C3.11454 5.18751 3.09024 5.26389 3.06246 5.33334L5.66663 6.50001L8.27079 2.93751C8.11802 2.82639 7.99302 2.68056 7.89579 2.50001C7.79857 2.31945 7.74996 2.12501 7.74996 1.91667C7.74996 1.56945 7.87149 1.27431 8.11454 1.03126C8.3576 0.7882 8.65274 0.666672 8.99996 0.666672C9.34718 0.666672 9.64232 0.7882 9.88538 1.03126C10.1284 1.27431 10.25 1.56945 10.25 1.91667C10.25 2.12501 10.2013 2.31945 10.1041 2.50001C10.0069 2.68056 9.8819 2.82639 9.72913 2.93751L12.3333 6.50001L14.9375 5.33334C14.9097 5.26389 14.8854 5.18751 14.8645 5.10417C14.8437 5.02084 14.8333 4.93056 14.8333 4.83334C14.8333 4.48612 14.9548 4.19098 15.1979 3.94792C15.4409 3.70487 15.7361 3.58334 16.0833 3.58334C16.4305 3.58334 16.7257 3.70487 16.9687 3.94792C17.2118 4.19098 17.3333 4.48612 17.3333 4.83334C17.3333 5.18056 17.2118 5.4757 16.9687 5.71876C16.7257 5.96181 16.4305 6.08334 16.0833 6.08334C16.0555 6.08334 16.0243 6.07987 15.9895 6.07292C15.9548 6.06598 15.9236 6.06251 15.8958 6.06251L15.0625 11.3542C14.993 11.7569 14.802 12.0903 14.4895 12.3542C14.177 12.6181 13.8194 12.75 13.4166 12.75H4.58329ZM4.58329 11.0833H13.4166L13.9583 7.60417L13 8.02084C12.6388 8.17362 12.2708 8.20139 11.8958 8.10417C11.5208 8.00695 11.2152 7.79862 10.9791 7.47917L8.99996 4.75001L7.02079 7.47917C6.78468 7.79862 6.47913 8.00695 6.10413 8.10417C5.72913 8.20139 5.36107 8.17362 4.99996 8.02084L4.04163 7.60417L4.58329 11.0833Z" fill="#191B24"/>
</svg>
