<svg width="17" height="17" viewBox="0 0 17 17" fill="none" xmlns="http://www.w3.org/2000/svg">
<path d="M4.66667 8.79167V5.25001C4.66667 4.90278 4.78819 4.60764 5.03125 4.36459C5.27431 4.12153 5.56944 4.00001 5.91667 4.00001C6.26389 4.00001 6.55903 4.12153 6.80208 4.36459C7.04514 4.60764 7.16667 4.90278 7.16667 5.25001V8.79167C7.16667 9.1389 7.04514 9.43403 6.80208 9.67709C6.55903 9.92015 6.26389 10.0417 5.91667 10.0417C5.56944 10.0417 5.27431 9.92015 5.03125 9.67709C4.78819 9.43403 4.66667 9.1389 4.66667 8.79167ZM8.83333 8.60417V1.91667C8.83333 1.56945 8.95486 1.27431 9.19792 1.03126C9.44097 0.7882 9.73611 0.666672 10.0833 0.666672C10.4306 0.666672 10.7257 0.7882 10.9688 1.03126C11.2118 1.27431 11.3333 1.56945 11.3333 1.91667V8.60417C11.3333 9.02084 11.2049 9.33334 10.9479 9.54167C10.691 9.75001 10.4028 9.85417 10.0833 9.85417C9.76389 9.85417 9.47569 9.75001 9.21875 9.54167C8.96181 9.33334 8.83333 9.02084 8.83333 8.60417ZM0.5 11.4792V8.58334C0.5 8.23612 0.621528 7.94098 0.864583 7.69792C1.10764 7.45487 1.40278 7.33334 1.75 7.33334C2.09722 7.33334 2.39236 7.45487 2.63542 7.69792C2.87847 7.94098 3 8.23612 3 8.58334V11.4792C3 11.8958 2.87153 12.2083 2.61458 12.4167C2.35764 12.625 2.06944 12.7292 1.75 12.7292C1.43056 12.7292 1.14236 12.625 0.885417 12.4167C0.628472 12.2083 0.5 11.8958 0.5 11.4792ZM2.5 16.5417C2.13889 16.5417 1.88542 16.3715 1.73958 16.0313C1.59375 15.691 1.65278 15.3889 1.91667 15.125L5.33333 11.7083C5.48611 11.5556 5.67014 11.4722 5.88542 11.4583C6.10069 11.4445 6.29167 11.5139 6.45833 11.6667L8.83333 13.7083L13.5 9.04167H13C12.7639 9.04167 12.566 8.96181 12.4062 8.80209C12.2465 8.64237 12.1667 8.44445 12.1667 8.20834C12.1667 7.97223 12.2465 7.77431 12.4062 7.61459C12.566 7.45487 12.7639 7.37501 13 7.37501H15.5C15.7361 7.37501 15.934 7.45487 16.0938 7.61459C16.2535 7.77431 16.3333 7.97223 16.3333 8.20834V10.7083C16.3333 10.9445 16.2535 11.1424 16.0938 11.3021C15.934 11.4618 15.7361 11.5417 15.5 11.5417C15.2639 11.5417 15.066 11.4618 14.9062 11.3021C14.7465 11.1424 14.6667 10.9445 14.6667 10.7083V10.2083L9.45833 15.4167C9.30556 15.5695 9.12153 15.6528 8.90625 15.6667C8.69097 15.6806 8.5 15.6111 8.33333 15.4583L5.95833 13.4167L3.08333 16.2917C3.01389 16.3611 2.92708 16.4201 2.82292 16.4688C2.71875 16.5174 2.61111 16.5417 2.5 16.5417Z" fill="#191B24"/>
</svg>
