<svg width="157" height="24" viewBox="0 0 157 24" fill="none" xmlns="http://www.w3.org/2000/svg">
<path d="M92.9819 18.6894C91.8675 18.6894 90.9534 18.5191 90.2395 18.1787C89.5257 17.8213 88.9946 17.3532 88.6464 16.7745C88.2981 16.1957 88.124 15.5574 88.124 14.8596C88.124 13.6851 88.5941 12.7319 89.5344 12C90.4746 11.2681 91.885 10.9021 93.7654 10.9021H97.0562V10.5957C97.0562 9.72766 96.8038 9.08936 96.2988 8.68085C95.7939 8.27234 95.1671 8.06808 94.4184 8.06808C93.7393 8.06808 93.1473 8.22979 92.6424 8.55319C92.1374 8.85957 91.824 9.31915 91.7021 9.93191H88.4374C88.5245 9.01276 88.8379 8.21277 89.3777 7.53192C89.9348 6.85106 90.6487 6.33191 91.5193 5.97447C92.3899 5.6 93.365 5.41277 94.4445 5.41277C96.2901 5.41277 97.744 5.86383 98.8061 6.76596C99.8682 7.66809 100.399 8.94468 100.399 10.5957V18.383H97.5525L97.2391 16.3404C96.856 17.0213 96.3162 17.583 95.6198 18.0255C94.9407 18.4681 94.0614 18.6894 92.9819 18.6894ZM93.7393 16.1362C94.6969 16.1362 95.4369 15.8298 95.9593 15.217C96.4991 14.6043 96.8386 13.8468 96.9779 12.9447H94.1311C93.2431 12.9447 92.6075 13.1064 92.2245 13.4298C91.8414 13.7362 91.6499 14.1191 91.6499 14.5787C91.6499 15.0723 91.8414 15.4553 92.2245 15.7277C92.6075 16 93.1125 16.1362 93.7393 16.1362Z" fill="#171D1E"/>
<path d="M103.59 24V5.71915H106.567L106.933 7.53192C107.35 6.97021 107.899 6.4766 108.578 6.05106C109.274 5.62553 110.171 5.41277 111.268 5.41277C112.487 5.41277 113.575 5.70213 114.533 6.28085C115.49 6.85957 116.248 7.65106 116.805 8.65532C117.362 9.65957 117.641 10.8 117.641 12.0766C117.641 13.3532 117.362 14.4936 116.805 15.4979C116.248 16.4851 115.49 17.2681 114.533 17.8468C113.575 18.4085 112.487 18.6894 111.268 18.6894C110.293 18.6894 109.44 18.5106 108.709 18.1532C107.977 17.7957 107.385 17.2936 106.933 16.6468V24H103.59ZM110.563 15.8298C111.625 15.8298 112.504 15.4809 113.201 14.783C113.897 14.0851 114.245 13.183 114.245 12.0766C114.245 10.9702 113.897 10.0596 113.201 9.34468C112.504 8.62979 111.625 8.27234 110.563 8.27234C109.483 8.27234 108.595 8.62979 107.899 9.34468C107.22 10.0426 106.88 10.9447 106.88 12.0511C106.88 13.1574 107.22 14.0681 107.899 14.783C108.595 15.4809 109.483 15.8298 110.563 15.8298Z" fill="#171D1E"/>
<path d="M122.429 3.75319C121.82 3.75319 121.315 3.57447 120.914 3.21702C120.531 2.85957 120.34 2.40851 120.34 1.86383C120.34 1.31915 120.531 0.876596 120.914 0.536169C121.315 0.178723 121.82 0 122.429 0C123.039 0 123.535 0.178723 123.918 0.536169C124.318 0.876596 124.519 1.31915 124.519 1.86383C124.519 2.40851 124.318 2.85957 123.918 3.21702C123.535 3.57447 123.039 3.75319 122.429 3.75319ZM120.758 18.383V5.71915H124.101V18.383H120.758Z" fill="#171D1E"/>
<path d="M133.362 18.383C132.004 18.383 130.916 18.0596 130.097 17.4128C129.279 16.766 128.87 15.617 128.87 13.966V8.45106H126.65V5.71915H128.87L129.262 2.3234H132.213V5.71915H135.713V8.45106H132.213V13.9915C132.213 14.6043 132.344 15.0298 132.605 15.2681C132.883 15.4894 133.353 15.6 134.015 15.6H135.634V18.383H133.362Z" fill="#171D1E"/>
<path d="M143.049 18.6894C141.935 18.6894 141.021 18.5191 140.307 18.1787C139.593 17.8213 139.062 17.3532 138.714 16.7745C138.365 16.1957 138.191 15.5574 138.191 14.8596C138.191 13.6851 138.661 12.7319 139.602 12C140.542 11.2681 141.952 10.9021 143.833 10.9021H147.123V10.5957C147.123 9.72766 146.871 9.08936 146.366 8.68085C145.861 8.27234 145.234 8.06808 144.486 8.06808C143.807 8.06808 143.215 8.22979 142.71 8.55319C142.205 8.85957 141.891 9.31915 141.769 9.93191H138.505C138.592 9.01276 138.905 8.21277 139.445 7.53192C140.002 6.85106 140.716 6.33191 141.587 5.97447C142.457 5.6 143.432 5.41277 144.512 5.41277C146.357 5.41277 147.811 5.86383 148.873 6.76596C149.935 7.66809 150.466 8.94468 150.466 10.5957V18.383H147.62L147.306 16.3404C146.923 17.0213 146.383 17.583 145.687 18.0255C145.008 18.4681 144.129 18.6894 143.049 18.6894ZM143.807 16.1362C144.764 16.1362 145.504 15.8298 146.027 15.217C146.566 14.6043 146.906 13.8468 147.045 12.9447H144.198C143.31 12.9447 142.675 13.1064 142.292 13.4298C141.909 13.7362 141.717 14.1191 141.717 14.5787C141.717 15.0723 141.909 15.4553 142.292 15.7277C142.675 16 143.18 16.1362 143.807 16.1362Z" fill="#171D1E"/>
<path d="M153.657 18.383V0H157V18.383H153.657Z" fill="#171D1E"/>
<path d="M77.6173 18.6882C75.7716 18.6882 74.1872 18.3052 72.8639 17.5393C71.5406 16.7563 70.522 15.6755 69.8081 14.2967C69.0942 12.901 68.7373 11.2925 68.7373 9.47121C68.7373 7.64993 69.0942 6.04142 69.8081 4.64568C70.522 3.24993 71.5406 2.16057 72.8639 1.37759C74.1872 0.594614 75.7716 0.203125 77.6173 0.203125C79.8112 0.203125 81.6046 0.739295 82.9975 1.81163C84.4079 2.86695 85.2871 4.35631 85.6354 6.27972H81.9528C81.7265 5.30951 81.2389 4.55206 80.4902 4.00738C79.7589 3.44568 78.7839 3.16483 77.565 3.16483C75.8761 3.16483 74.5528 3.72653 73.5952 4.84993C72.6375 5.97334 72.1587 7.51376 72.1587 9.47121C72.1587 11.4287 72.6375 12.9691 73.5952 14.0925C74.5528 15.1989 75.8761 15.7521 77.565 15.7521C78.7839 15.7521 79.7589 15.4967 80.4902 14.9861C81.2389 14.4584 81.7265 13.735 81.9528 12.8159H85.6354C85.2871 14.6542 84.4079 16.0925 82.9975 17.1308C81.6046 18.1691 79.8112 18.6882 77.6173 18.6882Z" fill="#171D1E"/>
<path d="M0 0.242188H11.1943V2.69456H8.98695C8.47498 2.69456 8.16387 2.74845 8.05163 2.85432C7.94136 2.96212 7.88425 3.28552 7.88425 3.82835V14.9795C7.88425 15.5243 7.94333 15.8592 8.0595 15.9863C8.18553 16.0883 8.48483 16.1403 8.95544 16.1403H11.1943V18.5926H0V16.1403H2.15419C2.67797 16.1403 3.00484 16.0864 3.13677 15.9805C3.2687 15.8746 3.33565 15.5474 3.33565 15.0026V3.8322V3.38561C3.33565 3.20274 3.33565 3.06222 3.33565 2.96405C3.33565 2.9525 3.27854 2.90438 3.16237 2.8216C3.04619 2.73691 2.72916 2.69648 2.20932 2.69648H0V0.242188Z" fill="#CC0000"/>
<path d="M11.6514 0.242188H21.0144L25.8466 13.0931L30.4917 0.242188H39.5869V2.69456H37.2516C36.9404 2.69456 36.7101 2.74846 36.5604 2.85818C36.4501 2.96597 36.395 3.20851 36.395 3.58388V15.276C36.395 15.7168 36.4521 15.992 36.5663 16.1037L36.7376 16.1653H37.3264H39.5869V18.5926H29.3555V16.1653H31.3147C31.555 16.1653 31.7027 16.1229 31.7598 16.0382C31.8169 15.9535 31.8444 15.6917 31.8444 15.2548V3.68012L26.8547 18.5926H23.4462L18.1947 3.93229V15.2548V15.9227C18.1947 15.9863 18.2183 16.044 18.2636 16.0921C18.3108 16.1403 18.4585 16.1653 18.7066 16.1653H20.8175V18.5926H11.6514V16.1653H13.7032H14.032H14.5125C14.6286 16.1653 14.7192 16.1441 14.7881 16.1037C14.9201 15.9747 14.987 15.6917 14.987 15.2567V3.55501C14.987 3.12767 14.8334 2.87743 14.5282 2.80235C14.1305 2.72921 13.78 2.69456 13.4767 2.69456H13.0219H11.6514V0.242188Z" fill="#CC0000"/>
<path d="M40.3701 0.242188H60.2521V7.68207H57.6922V6.21912C57.6922 5.55309 57.58 4.99294 57.3575 4.5425C57.1389 4.04202 56.8475 3.65895 56.4812 3.39524C56.115 3.1296 55.6641 2.93132 55.1245 2.80043C54.6677 2.71188 53.9175 2.66761 52.8719 2.66761H48.2544V7.84954H50.3869C50.6055 7.84954 50.7965 7.8457 50.9579 7.83992C51.1194 7.83415 51.2927 7.80912 51.4798 7.76677C51.6668 7.72442 51.8696 7.57235 52.0882 7.30671C52.3087 7.04107 52.417 6.53673 52.417 5.78986V4.84086H54.8725V13.4338H52.417V12.3847C52.417 11.6609 52.2674 11.145 51.9661 10.837C51.6648 10.5291 51.1824 10.3751 50.5129 10.3751H48.2544V16.1383H52.9211C54.6638 16.1383 55.8964 15.838 56.6132 15.2375C57.3319 14.6369 57.6903 13.6244 57.6903 12.2018V10.8582H60.2501V18.5907H40.3701V16.1383H42.5282C43.0323 16.1383 43.3612 16.1018 43.5148 16.0267C43.6073 15.967 43.6703 15.8554 43.7077 15.6937V15.0007V3.80332V3.47416V3.01987C43.7077 2.95442 43.6467 2.87935 43.5266 2.79465C43.4065 2.70803 43.1032 2.66568 42.6169 2.66568H40.3721V0.242188H40.3701Z" fill="#CC0000"/>
</svg>
