<svg width="12" height="12" viewBox="0 0 12 12" fill="none" xmlns="http://www.w3.org/2000/svg">
<path d="M3.00033 0.667969C1.71366 0.667969 0.666992 1.71464 0.666992 3.0013C0.666992 4.28797 1.71366 5.33464 3.00033 5.33464C4.28699 5.33464 5.33366 4.28797 5.33366 3.0013C5.33366 1.71464 4.28699 0.667969 3.00033 0.667969ZM3.00033 4.0013C2.44699 4.0013 2.00033 3.55464 2.00033 3.0013C2.00033 2.44797 2.44699 2.0013 3.00033 2.0013C3.55366 2.0013 4.00033 2.44797 4.00033 3.0013C4.00033 3.55464 3.55366 4.0013 3.00033 4.0013ZM9.00033 6.66797C7.71366 6.66797 6.66699 7.71464 6.66699 9.0013C6.66699 10.288 7.71366 11.3346 9.00033 11.3346C10.287 11.3346 11.3337 10.288 11.3337 9.0013C11.3337 7.71464 10.287 6.66797 9.00033 6.66797ZM9.00033 10.0013C8.44699 10.0013 8.00033 9.55464 8.00033 9.0013C8.00033 8.44797 8.44699 8.0013 9.00033 8.0013C9.55366 8.0013 10.0003 8.44797 10.0003 9.0013C10.0003 9.55464 9.55366 10.0013 9.00033 10.0013ZM1.60699 11.3346L0.666992 10.3946L10.3937 0.667969L11.3337 1.60797L1.60699 11.3346Z" fill="#171D1E"/>
</svg>
