<svg width="24" height="24" viewBox="0 0 24 24" fill="none" xmlns="http://www.w3.org/2000/svg">
<path opacity="0.35" d="M4.31194 14.0728C5.16694 14.9277 10.3439 19.2347 10.7029 19.5938C11.0609 19.9517 11.5299 20.1308 11.9989 20.1308C12.4679 20.1308 12.9369 19.9517 13.2949 19.5938C13.6549 19.2347 18.8309 14.9277 19.6859 14.0728C21.6539 12.1048 21.6539 8.91275 19.6859 6.94475C17.7179 4.97675 14.5259 4.97675 12.5579 6.94475C12.3469 7.15775 12.1669 7.39175 11.9999 7.62975C11.8329 7.39075 11.6529 7.15775 11.4399 6.94475C9.47194 4.97675 6.27994 4.97675 4.31194 6.94475C2.34394 8.91275 2.34394 12.1048 4.31194 14.0728Z" fill="#1B1B1B"/>
<path d="M16.9503 7C17.7653 7 18.5312 7.317 19.1073 7.893C19.6833 8.469 20.0002 9.235 20.0002 10.05C20.0002 10.865 19.6833 11.631 19.1073 12.207C18.5713 12.743 15.7962 15.097 14.1382 16.503C13.0402 17.434 12.3962 17.982 12.0002 18.325C11.6052 17.983 10.9613 17.435 9.86425 16.505C8.20625 15.098 5.43025 12.744 4.89425 12.208C3.70525 11.019 3.70525 9.084 4.89425 7.895C5.46925 7.317 6.23525 7 7.05025 7C7.86525 7 8.59725 7.339 9.20725 7.893C9.29925 7.986 12.0002 10.182 12.0002 10.182C12.0002 10.182 14.7013 7.986 14.7933 7.893C15.4222 7.339 16.1353 7 16.9503 7ZM16.9503 4C15.4023 4 13.8532 4.591 12.6722 5.772C12.4163 6.028 12.2013 6.308 12.0002 6.595C11.7992 6.308 11.5842 6.028 11.3282 5.772C10.1473 4.591 8.59825 4 7.05025 4C5.50225 4 3.95325 4.591 2.77225 5.772C0.40925 8.135 0.40925 11.965 2.77225 14.328C3.79925 15.355 10.0133 20.524 10.4443 20.955C10.8743 21.385 11.4373 21.599 12.0002 21.599C12.5632 21.599 13.1262 21.384 13.5562 20.955C13.9882 20.524 20.2023 15.354 21.2283 14.328C23.5913 11.965 23.5913 8.135 21.2283 5.772C20.0473 4.591 18.4983 4 16.9503 4Z" fill="#1B1B1B"/>
</svg>
