<svg width="21" height="18" viewBox="0 0 21 18" fill="none" xmlns="http://www.w3.org/2000/svg">
<path d="M18.46 1.16741C15.82 -0.632588 12.56 0.207412 10.8 2.26741C9.04002 0.207412 5.78002 -0.642588 3.14002 1.16741C1.74002 2.12741 0.860018 3.74741 0.800018 5.45741C0.660018 9.33741 4.10002 12.4474 9.35002 17.2174L9.45002 17.3074C10.21 17.9974 11.38 17.9974 12.14 17.2974L12.25 17.1974C17.5 12.4374 20.93 9.32741 20.8 5.44741C20.74 3.74741 19.86 2.12741 18.46 1.16741ZM10.9 15.7274L10.8 15.8274L10.7 15.7274C5.94002 11.4174 2.80002 8.56741 2.80002 5.67741C2.80002 3.67741 4.30002 2.17741 6.30002 2.17741C7.84002 2.17741 9.34002 3.16741 9.87002 4.53741H11.74C12.26 3.16741 13.76 2.17741 15.3 2.17741C17.3 2.17741 18.8 3.67741 18.8 5.67741C18.8 8.56741 15.66 11.4174 10.9 15.7274Z" fill="#444748"/>
</svg>
