<svg width="19" height="20" viewBox="0 0 19 20" fill="none" xmlns="http://www.w3.org/2000/svg">
<path d="M17.0999 1.5L15.5999 0L14.0999 1.5L12.5999 0L11.0999 1.5L9.59985 0L8.09985 1.5L6.59985 0L5.09985 1.5L3.59985 0V14H0.599854V17C0.599854 18.66 1.93985 20 3.59985 20H15.5999C17.2599 20 18.5999 18.66 18.5999 17V0L17.0999 1.5ZM12.5999 18H3.59985C3.04985 18 2.59985 17.55 2.59985 17V16H12.5999V18ZM16.5999 17C16.5999 17.55 16.1499 18 15.5999 18C15.0499 18 14.5999 17.55 14.5999 17V14H5.59985V3H16.5999V17Z" fill="#444748"/>
<path d="M12.5999 5H6.59985V7H12.5999V5Z" fill="#444748"/>
<path d="M15.5999 5H13.5999V7H15.5999V5Z" fill="#444748"/>
<path d="M12.5999 8H6.59985V10H12.5999V8Z" fill="#444748"/>
<path d="M15.5999 8H13.5999V10H15.5999V8Z" fill="#444748"/>
</svg>
