<svg width="16" height="20" viewBox="0 0 16 20" fill="none" xmlns="http://www.w3.org/2000/svg">
<path d="M8.00127 19.75C9.10127 19.75 10.0013 18.85 10.0013 17.75H6.00127C6.00127 18.85 6.89127 19.75 8.00127 19.75ZM14.0013 13.75V8.75C14.0013 5.68 12.3613 3.11 9.50127 2.43V1.75C9.50127 0.92 8.83127 0.25 8.00127 0.25C7.17127 0.25 6.50127 0.92 6.50127 1.75V2.43C3.63127 3.11 2.00127 5.67 2.00127 8.75V13.75L0.711272 15.04C0.0812722 15.67 0.521272 16.75 1.41127 16.75H14.5813C15.4713 16.75 15.9213 15.67 15.2913 15.04L14.0013 13.75Z" fill="#1C1B1B"/>
</svg>
