<svg width="18" height="18" viewBox="0 0 18 18" fill="none" xmlns="http://www.w3.org/2000/svg">
<path d="M2.0818 11.0734L2.0143 11.0059C1.7218 10.7134 1.7218 10.2409 2.0143 9.94843L6.5818 5.37342C6.8743 5.08092 7.3468 5.08092 7.6393 5.37342L10.1068 7.84093L14.8993 2.45592C15.1843 2.13342 15.6868 2.12592 15.9868 2.42592C16.2643 2.71092 16.2793 3.16092 16.0168 3.45342L10.6393 9.50593C10.3543 9.82843 9.8593 9.84343 9.5518 9.53593L7.1143 7.09842L3.1393 11.0734C2.8543 11.3659 2.3743 11.3659 2.0818 11.0734ZM3.1393 15.5734L7.1143 11.5984L9.5518 14.0359C9.8593 14.3434 10.3543 14.3284 10.6393 14.0059L16.0168 7.95343C16.2793 7.66093 16.2643 7.21093 15.9868 6.92593C15.6868 6.62593 15.1843 6.63343 14.8993 6.95593L10.1068 12.3409L7.6393 9.87343C7.3468 9.58093 6.8743 9.58093 6.5818 9.87343L2.0143 14.4484C1.7218 14.7409 1.7218 15.2134 2.0143 15.5059L2.0818 15.5734C2.3743 15.8659 2.8543 15.8659 3.1393 15.5734Z" fill="#3F484A"/>
</svg>
