<svg width="24" height="24" viewBox="0 0 24 24" fill="none" xmlns="http://www.w3.org/2000/svg">
<path opacity="0.35" d="M12 22C17.5228 22 22 17.5228 22 12C22 6.47715 17.5228 2 12 2C6.47715 2 2 6.47715 2 12C2 17.5228 6.47715 22 12 22Z" fill="#1B1B1B"/>
<path d="M14.8061 9.76989L22.1671 7.66689C22.7801 7.49189 23.0851 6.78889 22.7801 6.22889C21.9051 4.61989 20.6021 3.27989 19.0221 2.35989C18.5201 2.06789 17.8721 2.25789 17.6121 2.77789L14.3751 9.24989C14.2311 9.53689 14.4981 9.85789 14.8061 9.76989Z" fill="#1B1B1B"/>
<path d="M12 11V2C6.38296 2 1.84696 6.632 2.00396 12.284C2.14896 17.502 6.49896 21.852 11.717 21.996C17.369 22.152 22 17.617 22 12H13C12.448 12 12 11.552 12 11Z" fill="#1B1B1B"/>
</svg>
