<svg width="20" height="14" viewBox="0 0 20 14" fill="none" xmlns="http://www.w3.org/2000/svg">
<path d="M4.20386 3.50151H1.20386C0.653857 3.50151 0.203857 3.05151 0.203857 2.50151C0.203857 1.95151 0.653857 1.50151 1.20386 1.50151H4.20386C4.75386 1.50151 5.20386 1.95151 5.20386 2.50151C5.20386 3.05151 4.75386 3.50151 4.20386 3.50151ZM4.20386 6.50151H1.20386C0.653857 6.50151 0.203857 6.95151 0.203857 7.50151C0.203857 8.05151 0.653857 8.50151 1.20386 8.50151H4.20386C4.75386 8.50151 5.20386 8.05151 5.20386 7.50151C5.20386 6.95151 4.75386 6.50151 4.20386 6.50151ZM18.0839 12.7915L14.9639 9.67151C14.1039 10.2315 13.0739 10.5515 11.9639 10.4915C9.59386 10.3815 7.56386 8.53151 7.24386 6.18151C6.80386 2.83151 9.69386 0.00150958 13.0739 0.57151C15.0239 0.90151 16.6439 2.42151 17.0739 4.35151C17.4039 5.81151 17.0839 7.17151 16.3739 8.25151L19.5039 11.3815C19.8939 11.7715 19.8939 12.4015 19.5039 12.7915C19.1139 13.1815 18.4739 13.1815 18.0839 12.7915ZM15.2039 5.50151C15.2039 3.85151 13.8539 2.50151 12.2039 2.50151C10.5539 2.50151 9.20386 3.85151 9.20386 5.50151C9.20386 7.15151 10.5539 8.50151 12.2039 8.50151C13.8539 8.50151 15.2039 7.15151 15.2039 5.50151ZM1.20386 13.5015H9.20386C9.75386 13.5015 10.2039 13.0515 10.2039 12.5015C10.2039 11.9515 9.75386 11.5015 9.20386 11.5015H1.20386C0.653857 11.5015 0.203857 11.9515 0.203857 12.5015C0.203857 13.0515 0.653857 13.5015 1.20386 13.5015Z" fill="#424656"/>
</svg>
