<svg width="18" height="18" viewBox="0 0 18 18" fill="none" xmlns="http://www.w3.org/2000/svg">
<g clip-path="url(#clip0_12924_12301)">
<path d="M9 17.25C13.275 17.25 16.7925 13.995 17.2125 9.825C17.2575 9.3825 16.905 9 16.4625 9C16.08 9 15.7575 9.285 15.72 9.66C15.39 13.08 12.5025 15.75 9 15.75C6.66 15.75 4.5975 14.5575 3.39 12.75H4.5C4.9125 12.75 5.25 12.4125 5.25 12C5.25 11.5875 4.9125 11.25 4.5 11.25H1.5C1.0875 11.25 0.75 11.5875 0.75 12V15C0.75 15.4125 1.0875 15.75 1.5 15.75C1.9125 15.75 2.25 15.4125 2.25 15V13.7475C3.7425 15.8625 6.21 17.25 9 17.25ZM9 0.75C4.725 0.75 1.2075 4.005 0.7875 8.175C0.75 8.6175 1.095 9 1.5375 9C1.92 9 2.2425 8.715 2.28 8.34C2.61 4.92 5.4975 2.25 9 2.25C11.34 2.25 13.4025 3.4425 14.61 5.25H13.5C13.0875 5.25 12.75 5.5875 12.75 6C12.75 6.4125 13.0875 6.75 13.5 6.75H16.5C16.9125 6.75 17.25 6.4125 17.25 6V3C17.25 2.5875 16.9125 2.25 16.5 2.25C16.0875 2.25 15.75 2.5875 15.75 3V4.2525C14.2575 2.1375 11.79 0.75 9 0.75Z" fill="#294647"/>
<path d="M11.5036 9.54876C11.5036 10.2958 11.1819 10.9508 10.4578 11.5829L9.20519 10.7095C9.60742 10.3877 9.87174 10.0199 9.87174 9.65219C9.87174 9.26146 9.65339 9.00863 9.21669 9.00863C8.9064 9.00863 8.65357 9.10056 8.36626 9.31892C8.04448 9.66368 7.61927 9.928 7.09063 10.1349C7.7227 10.7554 8.43522 11.3645 9.22818 11.9851L8.12493 13.0079C6.88377 11.9506 5.96439 11.0427 5.40127 10.2498C5.03352 9.75562 4.88413 9.38787 4.88413 8.99713C4.88413 8.51446 5.2174 8.20417 5.73455 8.20417C6.12528 8.20417 6.44707 8.36506 6.79183 8.66386C7.15958 8.41103 7.32047 8.07776 7.32047 7.62956C7.32047 7.36524 7.2745 7.11241 7.19406 6.89406H4.50488V5.60693H12.0782V6.89406H8.77998C8.86043 7.15838 8.91789 7.46867 8.91789 7.84791C9.13624 7.79045 9.37758 7.74448 9.6419 7.74448C10.8256 7.74448 11.5036 8.457 11.5036 9.54876Z" fill="#294647"/>
</g>
<defs>
<clipPath id="clip0_12924_12301">
<rect width="18" height="18" fill="white"/>
</clipPath>
</defs>
</svg>
