<svg width="16" height="16" viewBox="0 0 16 16" fill="none" xmlns="http://www.w3.org/2000/svg">
<path d="M11.0973 4.70339L12.0573 5.66339L8.80392 8.91672L6.61059 6.72339C6.35059 6.46339 5.93059 6.46339 5.67059 6.72339L1.67059 10.7301C1.41059 10.9901 1.41059 11.4101 1.67059 11.6701C1.93059 11.9301 2.35059 11.9301 2.61059 11.6701L6.13725 8.13672L8.33059 10.3301C8.59059 10.5901 9.01059 10.5901 9.27059 10.3301L12.9973 6.61005L13.9573 7.57005C14.1639 7.77672 14.5239 7.63005 14.5239 7.33672V4.47005C14.5306 4.28339 14.3839 4.13672 14.1973 4.13672H11.3373C11.0373 4.13672 10.8906 4.49672 11.0973 4.70339Z" fill="#009904"/>
</svg>
