<svg width="12" height="14" viewBox="0 0 12 14" fill="none" xmlns="http://www.w3.org/2000/svg">
<path d="M9.33333 0.332031C8.96667 0.332031 8.66667 0.632031 8.66667 0.998698V1.66536H3.33333V0.998698C3.33333 0.632031 3.03333 0.332031 2.66667 0.332031C2.3 0.332031 2 0.632031 2 0.998698V1.66536H1.33333C0.593333 1.66536 0.00666666 2.26536 0.00666666 2.9987L0 12.332C0 13.0654 0.593333 13.6654 1.33333 13.6654H10.6667C11.4 13.6654 12 13.0654 12 12.332V2.9987C12 2.26536 11.4 1.66536 10.6667 1.66536H10V0.998698C10 0.632031 9.7 0.332031 9.33333 0.332031ZM10.6667 12.332H1.33333V5.66536H10.6667V12.332ZM5.33333 7.66536C5.33333 7.2987 5.63333 6.9987 6 6.9987C6.36667 6.9987 6.66667 7.2987 6.66667 7.66536C6.66667 8.03203 6.36667 8.33203 6 8.33203C5.63333 8.33203 5.33333 8.03203 5.33333 7.66536ZM2.66667 7.66536C2.66667 7.2987 2.96667 6.9987 3.33333 6.9987C3.7 6.9987 4 7.2987 4 7.66536C4 8.03203 3.7 8.33203 3.33333 8.33203C2.96667 8.33203 2.66667 8.03203 2.66667 7.66536ZM8 7.66536C8 7.2987 8.3 6.9987 8.66667 6.9987C9.03333 6.9987 9.33333 7.2987 9.33333 7.66536C9.33333 8.03203 9.03333 8.33203 8.66667 8.33203C8.3 8.33203 8 8.03203 8 7.66536ZM5.33333 10.332C5.33333 9.96536 5.63333 9.66536 6 9.66536C6.36667 9.66536 6.66667 9.96536 6.66667 10.332C6.66667 10.6987 6.36667 10.9987 6 10.9987C5.63333 10.9987 5.33333 10.6987 5.33333 10.332ZM2.66667 10.332C2.66667 9.96536 2.96667 9.66536 3.33333 9.66536C3.7 9.66536 4 9.96536 4 10.332C4 10.6987 3.7 10.9987 3.33333 10.9987C2.96667 10.9987 2.66667 10.6987 2.66667 10.332ZM8 10.332C8 9.96536 8.3 9.66536 8.66667 9.66536C9.03333 9.66536 9.33333 9.96536 9.33333 10.332C9.33333 10.6987 9.03333 10.9987 8.66667 10.9987C8.3 10.9987 8 10.6987 8 10.332Z" fill="#171D1E"/>
</svg>
