<svg width="16" height="12" viewBox="0 0 16 12" fill="none" xmlns="http://www.w3.org/2000/svg">
<path d="M12.667 7.33464V2.0013C12.667 1.26797 12.067 0.667969 11.3337 0.667969H2.00033C1.26699 0.667969 0.666992 1.26797 0.666992 2.0013V7.33464C0.666992 8.06797 1.26699 8.66797 2.00033 8.66797H11.3337C12.067 8.66797 12.667 8.06797 12.667 7.33464ZM11.3337 7.33464H2.00033V2.0013H11.3337V7.33464ZM6.66699 2.66797C5.56033 2.66797 4.66699 3.5613 4.66699 4.66797C4.66699 5.77464 5.56033 6.66797 6.66699 6.66797C7.77366 6.66797 8.66699 5.77464 8.66699 4.66797C8.66699 3.5613 7.77366 2.66797 6.66699 2.66797ZM15.3337 2.66797V10.0013C15.3337 10.7346 14.7337 11.3346 14.0003 11.3346H2.66699V10.0013H14.0003V2.66797H15.3337Z" fill="#171D1E"/>
</svg>
