<svg width="20" height="20" viewBox="0 0 20 20" fill="none" xmlns="http://www.w3.org/2000/svg">
<path d="M18 12C19.1046 12 20 11.1046 20 10C20 8.89543 19.1046 8 18 8C16.8954 8 16 8.89543 16 10C16 11.1046 16.8954 12 18 12Z" fill="#424656"/>
<path d="M2 12C3.10457 12 4 11.1046 4 10C4 8.89543 3.10457 8 2 8C0.89543 8 0 8.89543 0 10C0 11.1046 0.89543 12 2 12Z" fill="#424656"/>
<path d="M10 20C11.1046 20 12 19.1046 12 18C12 16.8954 11.1046 16 10 16C8.89543 16 8 16.8954 8 18C8 19.1046 8.89543 20 10 20Z" fill="#424656"/>
<path d="M5.89 12.65L2.95 15.58C2.56 15.97 2.56 16.6 2.95 16.99C3.34 17.38 3.97 17.38 4.36 16.99L7.3 14.06C7.69 13.68 7.69 13.04 7.3 12.65C6.91 12.26 6.28 12.26 5.89 12.65Z" fill="#424656"/>
<path d="M4.41 2.94C4.02 2.55 3.39 2.55 3 2.94C2.61 3.33 2.61 3.96 3 4.35L5.93 7.29C6.32 7.68 6.95 7.68 7.35 7.29C7.73 6.9 7.73 6.27 7.34 5.88L4.41 2.94Z" fill="#424656"/>
<path d="M14.12 12.65C13.73 12.26 13.1 12.26 12.7 12.65C12.31 13.04 12.31 13.67 12.7 14.06L15.64 17C16.03 17.39 16.66 17.39 17.05 17C17.44 16.61 17.44 15.98 17.05 15.59L14.12 12.65Z" fill="#424656"/>
<path d="M14.06 7.33L17.05 4.35C17.44 3.95 17.44 3.32 17.05 2.93C16.66 2.54 16.03 2.54 15.64 2.93L12.65 5.91C12.26 6.3 12.26 6.93 12.65 7.33C13.04 7.72 13.67 7.72 14.06 7.33Z" fill="#424656"/>
<path d="M10 4C11.1046 4 12 3.10457 12 2C12 0.89543 11.1046 0 10 0C8.89543 0 8 0.89543 8 2C8 3.10457 8.89543 4 10 4Z" fill="#424656"/>
</svg>
