<svg width="16" height="16" viewBox="0 0 16 16" fill="none" xmlns="http://www.w3.org/2000/svg">
<path d="M10.664 11.3433V7.33666C10.664 6.97 10.364 6.67 9.99733 6.67C9.63067 6.67 9.33067 6.97 9.33067 7.33666V11.3433H8.13733C7.83733 11.3433 7.69067 11.7033 7.904 11.91L9.764 13.7633C9.89733 13.89 10.104 13.89 10.2373 13.7633L12.0973 11.91C12.3107 11.7033 12.1573 11.3433 11.864 11.3433H10.664ZM5.764 2.23666L3.904 4.09666C3.69067 4.30333 3.83733 4.66333 4.13733 4.66333H5.33067V8.67C5.33067 9.03666 5.63067 9.33666 5.99733 9.33666C6.364 9.33666 6.664 9.03666 6.664 8.67V4.66333H7.85733C8.15733 4.66333 8.304 4.30333 8.09067 4.09666L6.23067 2.23666C6.104 2.11 5.89067 2.11 5.764 2.23666Z" fill="#1C1B1B"/>
</svg>
