<svg width="18" height="19" viewBox="0 0 18 19" fill="none" xmlns="http://www.w3.org/2000/svg">
<path d="M4.5 15.3486C5.325 15.3486 6 14.6736 6 13.8486V8.59863C6 7.77363 5.325 7.09863 4.5 7.09863C3.675 7.09863 3 7.77363 3 8.59863V13.8486C3 14.6736 3.675 15.3486 4.5 15.3486Z" fill="#191B24"/>
<path d="M12 11.5986V13.8486C12 14.6736 12.675 15.3486 13.5 15.3486C14.325 15.3486 15 14.6736 15 13.8486V11.5986C15 10.7736 14.325 10.0986 13.5 10.0986C12.675 10.0986 12 10.7736 12 11.5986Z" fill="#191B24"/>
<path d="M9 15.3486C9.825 15.3486 10.5 14.6736 10.5 13.8486V4.84863C10.5 4.02363 9.825 3.34863 9 3.34863C8.175 3.34863 7.5 4.02363 7.5 4.84863V13.8486C7.5 14.6736 8.175 15.3486 9 15.3486Z" fill="#191B24"/>
</svg>
