<svg width="20" height="13" viewBox="0 0 20 13" fill="none" xmlns="http://www.w3.org/2000/svg">
<path d="M1.66659 12.8333C1.43047 12.8333 1.23256 12.7535 1.07284 12.5937C0.913113 12.434 0.833252 12.2361 0.833252 12V1.16666C0.833252 0.930551 0.913113 0.732634 1.07284 0.572912C1.23256 0.413189 1.43047 0.333328 1.66659 0.333328C1.9027 0.333328 2.10061 0.413189 2.26034 0.572912C2.42006 0.732634 2.49992 0.930551 2.49992 1.16666V8.66666H9.16658V3.66666C9.16658 3.20833 9.32978 2.81597 9.65617 2.48958C9.98256 2.16319 10.3749 1.99999 10.8333 1.99999H15.8333C16.7499 1.99999 17.5346 2.32638 18.1874 2.97916C18.8402 3.63194 19.1666 4.41666 19.1666 5.33333V12C19.1666 12.2361 19.0867 12.434 18.927 12.5937C18.7673 12.7535 18.5694 12.8333 18.3333 12.8333C18.0971 12.8333 17.8992 12.7535 17.7395 12.5937C17.5798 12.434 17.4999 12.2361 17.4999 12V10.3333H2.49992V12C2.49992 12.2361 2.42006 12.434 2.26034 12.5937C2.10061 12.7535 1.9027 12.8333 1.66659 12.8333ZM5.83325 7.83333C5.13881 7.83333 4.54853 7.59027 4.06242 7.10416C3.57631 6.61805 3.33325 6.02777 3.33325 5.33333C3.33325 4.63888 3.57631 4.04861 4.06242 3.56249C4.54853 3.07638 5.13881 2.83333 5.83325 2.83333C6.5277 2.83333 7.11797 3.07638 7.60408 3.56249C8.0902 4.04861 8.33325 4.63888 8.33325 5.33333C8.33325 6.02777 8.0902 6.61805 7.60408 7.10416C7.11797 7.59027 6.5277 7.83333 5.83325 7.83333ZM10.8333 8.66666H17.4999V5.33333C17.4999 4.875 17.3367 4.48263 17.0103 4.15624C16.6839 3.82986 16.2916 3.66666 15.8333 3.66666H10.8333V8.66666ZM5.83325 6.16666C6.06936 6.16666 6.26728 6.0868 6.427 5.92708C6.58672 5.76736 6.66658 5.56944 6.66658 5.33333C6.66658 5.09722 6.58672 4.8993 6.427 4.73958C6.26728 4.57986 6.06936 4.5 5.83325 4.5C5.59714 4.5 5.39922 4.57986 5.2395 4.73958C5.07978 4.8993 4.99992 5.09722 4.99992 5.33333C4.99992 5.56944 5.07978 5.76736 5.2395 5.92708C5.39922 6.0868 5.59714 6.16666 5.83325 6.16666Z" fill="#191B24"/>
</svg>
