<svg width="14" height="18" viewBox="0 0 14 18" fill="none" xmlns="http://www.w3.org/2000/svg">
<path d="M6.16664 11.0833L1.22914 10.4583C0.881921 10.4167 0.656226 10.2292 0.552059 9.89584C0.447893 9.56251 0.520809 9.27778 0.770809 9.04167L9.29164 0.875005C9.36109 0.805561 9.44442 0.753477 9.54164 0.718755C9.63886 0.684033 9.77081 0.666672 9.93748 0.666672C10.2153 0.666672 10.4271 0.784727 10.5729 1.02084C10.7187 1.25695 10.7222 1.50001 10.5833 1.75001L7.83331 6.91667L12.7708 7.54167C13.118 7.58334 13.3437 7.77084 13.4479 8.10417C13.5521 8.43751 13.4791 8.72223 13.2291 8.95834L4.70831 17.125C4.63886 17.1945 4.55553 17.2465 4.45831 17.2813C4.36109 17.316 4.22914 17.3333 4.06248 17.3333C3.7847 17.3333 3.57289 17.2153 3.42706 16.9792C3.28123 16.7431 3.27775 16.5 3.41664 16.25L6.16664 11.0833ZM7.45831 12.1875L10.8125 8.97917L5.20831 8.27084L6.52081 5.83334L3.18748 9.04167L8.77081 9.72917L7.45831 12.1875Z" fill="#191B24"/>
</svg>
