<svg width="18" height="17" viewBox="0 0 18 17" fill="none" xmlns="http://www.w3.org/2000/svg">
<path d="M3.93758 16.5C3.61814 16.5 3.30911 16.3889 3.0105 16.1667C2.71189 15.9445 2.51397 15.6736 2.41675 15.3542C2.06953 14.1875 1.7848 13.1771 1.56258 12.3229C1.34036 11.4688 1.16328 10.7188 1.03133 10.0729C0.899387 9.42709 0.805637 8.85417 0.750081 8.35417C0.694526 7.85417 0.666748 7.37501 0.666748 6.91667C0.666748 5.63889 1.11119 4.55556 2.00008 3.66667C2.88897 2.77778 3.9723 2.33334 5.25008 2.33334H9.41675C9.79175 1.83334 10.2674 1.43056 10.8438 1.12501C11.4202 0.81945 12.0556 0.666672 12.7501 0.666672C13.0973 0.666672 13.3924 0.7882 13.6355 1.03126C13.8786 1.27431 14.0001 1.56945 14.0001 1.91667C14.0001 2.00001 13.9897 2.08334 13.9688 2.16667C13.948 2.25001 13.9237 2.32639 13.8959 2.39584C13.8404 2.54862 13.7883 2.70139 13.7397 2.85417C13.6911 3.00695 13.6529 3.17362 13.6251 3.35417L15.5209 5.25001H16.5001C16.7362 5.25001 16.9341 5.32987 17.0938 5.48959C17.2536 5.64931 17.3334 5.84723 17.3334 6.08334V10.4583C17.3334 10.6389 17.2813 10.7986 17.1772 10.9375C17.073 11.0764 16.9306 11.1806 16.7501 11.25L14.9792 11.8333L13.9376 15.3125C13.8265 15.6736 13.6251 15.9618 13.3334 16.1771C13.0417 16.3924 12.7084 16.5 12.3334 16.5H10.6667C10.2084 16.5 9.81605 16.3368 9.48967 16.0104C9.16328 15.684 9.00008 15.2917 9.00008 14.8333H7.33342C7.33342 15.2917 7.17022 15.684 6.84383 16.0104C6.51744 16.3368 6.12508 16.5 5.66675 16.5H3.93758ZM4.00008 14.8333H5.66675V13.1667H10.6667V14.8333H12.3334L13.6251 10.5417L15.6667 9.85417V6.91667H14.8334L11.9167 4.00001C11.9167 3.72223 11.9341 3.45139 11.9688 3.18751C12.0036 2.92362 12.0556 2.66667 12.1251 2.41667C11.7223 2.52778 11.3681 2.71876 11.0626 2.98959C10.757 3.26042 10.5348 3.59723 10.3959 4.00001H5.25008C4.44453 4.00001 3.75703 4.28473 3.18758 4.85417C2.61814 5.42362 2.33341 6.11112 2.33341 6.91667C2.33341 7.48612 2.47925 8.46181 2.77092 9.84376C3.06258 11.2257 3.4723 12.8889 4.00008 14.8333ZM12.3334 8.16667C12.5695 8.16667 12.7674 8.08681 12.9272 7.92709C13.0869 7.76737 13.1667 7.56945 13.1667 7.33334C13.1667 7.09723 13.0869 6.89931 12.9272 6.73959C12.7674 6.57987 12.5695 6.50001 12.3334 6.50001C12.0973 6.50001 11.8994 6.57987 11.7397 6.73959C11.5799 6.89931 11.5001 7.09723 11.5001 7.33334C11.5001 7.56945 11.5799 7.76737 11.7397 7.92709C11.8994 8.08681 12.0973 8.16667 12.3334 8.16667ZM9.00008 6.50001C9.23619 6.50001 9.43411 6.42014 9.59383 6.26042C9.75355 6.1007 9.83342 5.90278 9.83342 5.66667C9.83342 5.43056 9.75355 5.23264 9.59383 5.07292C9.43411 4.9132 9.23619 4.83334 9.00008 4.83334H6.50008C6.26397 4.83334 6.06605 4.9132 5.90633 5.07292C5.74661 5.23264 5.66675 5.43056 5.66675 5.66667C5.66675 5.90278 5.74661 6.1007 5.90633 6.26042C6.06605 6.42014 6.26397 6.50001 6.50008 6.50001H9.00008Z" fill="#191B24"/>
</svg>
