<svg width="16" height="18" viewBox="0 0 16 18" fill="none" xmlns="http://www.w3.org/2000/svg">
<path d="M8.00004 16.5L5.18754 17.4375C5.09032 17.4653 5.00004 17.4861 4.91671 17.5C4.83337 17.5139 4.75004 17.5208 4.66671 17.5208C4.22226 17.5208 3.83337 17.3646 3.50004 17.0521C3.16671 16.7396 3.00004 16.3403 3.00004 15.8542V11.3125L0.833374 7.79167C0.750041 7.65278 0.687541 7.51042 0.645874 7.36459C0.604207 7.21876 0.583374 7.06945 0.583374 6.91667C0.583374 6.76389 0.604207 6.61459 0.645874 6.46876C0.687541 6.32292 0.750041 6.18056 0.833374 6.04167L3.66671 1.45834C3.81949 1.20834 4.02087 1.01389 4.27087 0.875005C4.52087 0.736116 4.79171 0.666672 5.08337 0.666672H10.9167C11.2084 0.666672 11.4792 0.736116 11.7292 0.875005C11.9792 1.01389 12.1806 1.20834 12.3334 1.45834L15.1667 6.04167C15.25 6.18056 15.3125 6.32292 15.3542 6.46876C15.3959 6.61459 15.4167 6.76389 15.4167 6.91667C15.4167 7.06945 15.3959 7.21876 15.3542 7.36459C15.3125 7.51042 15.25 7.65278 15.1667 7.79167L13 11.3125V15.8542C13 16.3403 12.8334 16.7396 12.5 17.0521C12.1667 17.3646 11.7778 17.5208 11.3334 17.5208C11.25 17.5208 11.1667 17.5139 11.0834 17.5C11 17.4861 10.9098 17.4653 10.8125 17.4375L8.00004 16.5ZM8.00004 14.75L11.3334 15.8542V13.1667H4.66671V15.8542L8.00004 14.75ZM5.08337 11.5H10.9167L13.75 6.91667L10.9167 2.33334H5.08337L2.25004 6.91667L5.08337 11.5ZM7.12504 7.95834L10.0625 5.00001C10.2153 4.83334 10.4063 4.75348 10.6355 4.76042C10.8646 4.76737 11.0625 4.84723 11.2292 5.00001C11.3959 5.16667 11.4827 5.36459 11.4896 5.59376C11.4966 5.82292 11.4167 6.02084 11.25 6.18751L7.70837 9.72917C7.54171 9.89584 7.34726 9.97917 7.12504 9.97917C6.90282 9.97917 6.70837 9.89584 6.54171 9.72917L4.77087 7.95834C4.60421 7.79167 4.52087 7.59376 4.52087 7.36459C4.52087 7.13542 4.60421 6.93751 4.77087 6.77084C4.93754 6.60417 5.13546 6.52084 5.36462 6.52084C5.59379 6.52084 5.79171 6.60417 5.95837 6.77084L7.12504 7.95834ZM8.00004 13.1667H4.66671H11.3334H8.00004Z" fill="#191B24"/>
</svg>
