<svg width="40" height="40" viewBox="0 0 40 40" fill="none" xmlns="http://www.w3.org/2000/svg">
<path d="M27 12H26V11C26 10.45 25.55 10 25 10C24.45 10 24 10.45 24 11V12H16V11C16 10.45 15.55 10 15 10C14.45 10 14 10.45 14 11V12H13C11.89 12 11.01 12.9 11.01 14L11 28C11 29.1 11.89 30 13 30H27C28.1 30 29 29.1 29 28V14C29 12.9 28.1 12 27 12ZM26 28H14C13.45 28 13 27.55 13 27V17H27V27C27 27.55 26.55 28 26 28ZM16 19H19C19.55 19 20 19.45 20 20V23C20 23.55 19.55 24 19 24H16C15.45 24 15 23.55 15 23V20C15 19.45 15.45 19 16 19Z" fill="#49454F"/>
</svg>
