<svg width="40" height="40" viewBox="0 0 40 40" fill="none" xmlns="http://www.w3.org/2000/svg">
<path d="M23.6667 34.6248C23.3333 34.6248 23.0417 34.4998 22.7917 34.2498C22.5417 33.9998 22.4167 33.6943 22.4167 33.3332C22.4167 32.9998 22.5417 32.7151 22.7917 32.479C23.0417 32.2429 23.3333 32.1248 23.6667 32.1248H29.75L24.7917 28.7082C24.4861 28.5137 24.2986 28.2429 24.2292 27.8957C24.1597 27.5484 24.2361 27.2359 24.4583 26.9582C24.6528 26.6526 24.9167 26.4651 25.25 26.3957C25.5833 26.3262 25.8889 26.4026 26.1667 26.6248L31.125 30.0832L29.0417 24.4165C28.9028 24.0832 28.9167 23.7637 29.0833 23.4582C29.25 23.1526 29.5 22.9304 29.8333 22.7915C30.1667 22.6526 30.4861 22.6734 30.7917 22.854C31.0972 23.0346 31.3194 23.2776 31.4583 23.5832L33.4583 29.2498L35.0833 23.4165C35.1944 23.0554 35.3819 22.7984 35.6458 22.6457C35.9097 22.4929 36.2083 22.4582 36.5417 22.5415C36.875 22.6248 37.1389 22.8123 37.3333 23.104C37.5278 23.3957 37.5694 23.7082 37.4583 24.0415L34.875 33.7082C34.7917 33.9859 34.6458 34.2082 34.4375 34.3748C34.2292 34.5415 33.9722 34.6248 33.6667 34.6248H23.6667ZM7.33333 29.9165C6.55556 29.9165 5.88889 29.6387 5.33333 29.0832C4.77778 28.5276 4.5 27.8609 4.5 27.0832V9.0415C4.5 8.23595 4.77778 7.55539 5.33333 6.99984C5.88889 6.44428 6.55556 6.1665 7.33333 6.1665H28.7083C29.4861 6.1665 30.1528 6.44428 30.7083 6.99984C31.2639 7.55539 31.5417 8.23595 31.5417 9.0415V20.5415C31.2917 20.4582 31.0556 20.4026 30.8333 20.3748C30.6111 20.3471 30.375 20.3332 30.125 20.3332C29.875 20.3332 29.6389 20.3471 29.4167 20.3748C29.1944 20.4026 28.9583 20.4582 28.7083 20.5415V15.9998H19.4583V20.1248C19.4583 20.9026 19.1806 21.5693 18.625 22.1248C18.0694 22.6804 17.4028 22.9582 16.625 22.9582H7.33333V27.0832H21.625C21.5694 27.3054 21.5208 27.5346 21.4792 27.7707C21.4375 28.0068 21.4167 28.236 21.4167 28.4582C21.4167 28.7082 21.4375 28.9512 21.4792 29.1873C21.5208 29.4235 21.5694 29.6665 21.625 29.9165H7.33333ZM19.4583 13.1248H28.7083V8.99984H19.4583V13.1248ZM7.33333 13.1248H16.625V8.99984H7.33333V13.1248ZM7.33333 20.0832H16.625V15.9582H7.33333V20.0832Z" fill="#191B24"/>
</svg>
