<svg width="82" height="44" viewBox="0 0 82 44" fill="none" xmlns="http://www.w3.org/2000/svg">
<g clip-path="url(#clip0_15132_24115)">
<path d="M52.8687 4.58451C52.8687 5.07454 52.7709 5.53233 52.5758 5.95789C52.3934 6.38345 52.1399 6.75743 51.8142 7.07983C51.4888 7.38935 51.1047 7.64081 50.6622 7.83419C50.2325 8.01474 49.7707 8.10501 49.2758 8.10501C48.7811 8.10501 48.3128 8.01474 47.87 7.83419C47.4406 7.64081 47.063 7.38935 46.7377 7.07983C46.4251 6.75743 46.1712 6.38345 45.9761 5.95789C45.7937 5.53233 45.7025 5.07454 45.7025 4.58451C45.7025 4.10735 45.7937 3.65601 45.9761 3.23044C46.1712 2.79199 46.4251 2.41801 46.7377 2.10852C47.063 1.78612 47.4406 1.53466 47.87 1.35412C48.3128 1.16068 48.7811 1.06396 49.2758 1.06396C49.7707 1.06396 50.2325 1.16068 50.6622 1.35412C51.1047 1.53466 51.4888 1.78612 51.8142 2.10852C52.1399 2.41801 52.3934 2.79199 52.5758 3.23044C52.7709 3.65601 52.8687 4.10735 52.8687 4.58451ZM51.9509 30.9305H46.5812V10.2135H51.9509V30.9305Z" fill="#4285F4"/>
<path d="M59.6081 30.9304H54.2778V15.4749H51.6807V10.2134H54.2778V9.22687C54.2778 7.95021 54.5185 6.75091 55 5.629C55.4946 4.50707 56.165 3.53343 57.0113 2.7081C57.8703 1.86988 58.8662 1.2122 59.9987 0.735057C61.1313 0.245019 62.3419 0 63.6306 0H67.6333V5.26145H63.6306C63.0577 5.26145 62.524 5.36461 62.0294 5.57096C61.5478 5.76439 61.1248 6.04165 60.7604 6.40272C60.4087 6.75091 60.129 7.17001 59.9206 7.66011C59.7124 8.13721 59.6081 8.65949 59.6081 9.22687V10.2134H66.1494V15.4749H59.6081V30.9304Z" fill="#4285F4"/>
<path d="M77.9584 30.89C76.67 30.89 75.4593 30.6513 74.3268 30.1742C73.1939 29.6841 72.1981 29.02 71.3391 28.1818C70.4928 27.3307 69.8224 26.3442 69.3278 25.2222C68.8463 24.1003 68.6055 22.901 68.6055 21.6244V15.4731H66.0084V10.2116H68.6055V0.00976562H73.9168V10.2116H82V15.4731H73.9168V21.6244C73.9168 22.1788 74.0202 22.7011 74.2285 23.1911C74.4368 23.6683 74.7235 24.0874 75.0884 24.4485C75.4526 24.8096 75.8826 25.0997 76.3768 25.319C76.8717 25.5253 77.3984 25.6284 77.9584 25.6284H82V30.89H77.9584Z" fill="#4285F4"/>
<path d="M12.2778 30.9961H0V25.7025H12.2778C12.6451 25.7025 12.9598 25.5728 13.2222 25.3133C13.4846 25.0538 13.6158 24.7424 13.6158 24.3791C13.6158 24.0029 13.4846 23.7563 13.2222 23.6396C12.9598 23.5228 12.6451 23.4644 12.2778 23.4644H6.68982C5.7585 23.4644 4.88618 23.2893 4.07291 22.9389C3.25964 22.5886 2.55131 22.115 1.94791 21.5183C1.34452 20.9084 0.865743 20.2013 0.511575 19.3969C0.170525 18.5925 0 17.7296 0 16.8084C0 15.8873 0.170525 15.0244 0.511575 14.22C0.865743 13.4157 1.34452 12.715 1.94791 12.1182C2.55131 11.5213 3.25964 11.0542 4.07291 10.7169C4.88618 10.3666 5.7585 10.1914 6.68982 10.1914H18.9659V15.4791L6.68982 15.485C6.32252 15.485 6.00771 15.6148 5.74538 15.8743C5.48301 16.1338 5.35184 16.4452 5.35184 16.8084C5.35184 17.1847 5.48301 17.5091 5.74538 17.7816C6.00771 18.041 6.32252 18.1708 6.68982 18.1708H12.2778C13.1959 18.1708 14.0617 18.3265 14.875 18.6379C15.6883 18.9363 16.3966 19.358 17 19.9029C17.6033 20.4478 18.0822 21.103 18.4363 21.8686C18.7905 22.634 18.9676 23.4709 18.9676 24.3791C18.9676 25.3003 18.7905 26.1631 18.4363 26.9676C18.0822 27.759 17.6033 28.4596 17 29.0695C16.3966 29.6662 15.6883 30.1398 14.875 30.4901C14.0617 30.8275 13.1959 30.9961 12.2778 30.9961Z" fill="#4285F4"/>
<path d="M46.0715 23.0709C46.0715 24.1462 46.1057 25.1639 45.6891 26.124C45.2726 27.0713 44.4572 27.8969 43.7283 28.601C43.0123 29.305 42.1664 29.8619 41.19 30.2715C40.2266 30.6812 39.1917 30.886 38.0854 30.886C37.0962 30.886 36.1456 30.7195 35.2345 30.3867C34.3232 30.0411 33.4967 29.5419 32.7548 28.889C32.0258 29.5419 31.2058 30.0411 30.2945 30.3867C29.3964 30.7195 28.4461 30.886 27.4437 30.886C26.3372 30.886 25.3024 30.6812 24.3391 30.2715C23.3759 29.8619 22.5297 29.305 21.8008 28.601C21.0848 27.8969 20.5186 27.0713 20.1021 26.124C19.6855 25.1639 19.4772 24.1462 19.4772 23.0709V10.2158H24.8078V23.0709C24.8078 23.4294 24.8728 23.7686 25.003 24.0887C25.1463 24.3958 25.3349 24.6711 25.5693 24.9143C25.8166 25.1447 26.0965 25.3303 26.4089 25.4711C26.7343 25.5991 27.0793 25.6631 27.4437 25.6631C27.8082 25.6631 28.1532 25.5991 28.4786 25.4711C28.804 25.3303 29.0905 25.1447 29.3378 24.9143C29.5851 24.6711 29.7739 24.3958 29.904 24.0887C30.0472 23.7686 30.1188 23.4294 30.1188 23.0709V10.2158H35.4299V23.0709C35.4299 23.4294 35.5014 23.7686 35.6448 24.0887C35.7878 24.3958 35.9767 24.6711 36.2109 24.9143C36.4582 25.1447 36.738 25.3303 37.0506 25.4711C37.3759 25.5991 37.721 25.6631 38.0854 25.6631C38.4498 25.6631 38.7949 25.5991 39.1202 25.4711C39.4456 25.3303 39.7254 25.1447 39.96 24.9143C40.2073 24.6711 40.4024 24.3958 40.5458 24.0887C40.6887 23.7686 40.7602 23.4294 40.7602 23.0709V10.2158H46.0715V23.0709Z" fill="#4285F4"/>
<path d="M1.81517 37.0571V40.9164C1.81517 41.1055 1.86273 41.2447 1.95784 41.3339C2.05825 41.418 2.193 41.4598 2.36209 41.4598C2.4942 41.4598 2.61046 41.4415 2.71086 41.4047C2.81126 41.3627 2.9011 41.3075 2.98037 41.2395L3.15475 41.9562C3.02792 42.0559 2.86939 42.1347 2.67915 42.1924C2.48892 42.2502 2.28812 42.2791 2.07674 42.2791C1.81252 42.2791 1.57738 42.2397 1.37128 42.1608C1.17048 42.0823 1.01195 41.9562 0.895699 41.7827C0.784725 41.6097 0.729239 41.3786 0.729239 41.0899V37.3563L1.81517 37.0571ZM3.08341 38.2621V39.0655H0V38.2621H3.08341Z" fill="#6C6C6C"/>
<path d="M10.0166 42.279C9.59916 42.279 9.23452 42.1975 8.9227 42.0349C8.61627 41.8719 8.37847 41.6382 8.20937 41.3338C8.04027 41.0291 7.95569 40.6618 7.95569 40.2312C7.95569 39.8003 8.04027 39.433 8.20937 39.1283C8.37847 38.8239 8.61361 38.5902 8.91479 38.4272C9.2213 38.2646 9.57005 38.1831 9.96114 38.1831C10.3627 38.1831 10.7036 38.2646 10.9836 38.4272C11.2637 38.585 11.4777 38.8027 11.6257 39.081C11.7736 39.3542 11.8477 39.6667 11.8477 40.0184C11.8477 40.1234 11.845 40.2231 11.8397 40.3176C11.8344 40.4121 11.8265 40.4962 11.8159 40.5699H8.65328V39.8215H11.3403L10.8172 40.0106C10.8172 39.6798 10.7405 39.4252 10.5873 39.2466C10.4393 39.068 10.228 38.9787 9.95316 38.9787C9.75237 38.9787 9.57803 39.0259 9.43006 39.1205C9.28734 39.215 9.17904 39.3567 9.10509 39.5458C9.03107 39.7296 8.99406 39.9633 8.99406 40.2469C8.99406 40.5252 9.03373 40.7563 9.113 40.9398C9.19751 41.1184 9.31379 41.2523 9.46175 41.3416C9.61504 41.431 9.79729 41.4756 10.0086 41.4756C10.2412 41.4756 10.4288 41.431 10.5715 41.3416C10.7141 41.2523 10.8251 41.1288 10.9044 40.9714L11.7684 41.3022C11.6838 41.5069 11.5544 41.6829 11.38 41.8299C11.2109 41.9769 11.0074 42.0899 10.7696 42.1686C10.5371 42.2422 10.2861 42.279 10.0166 42.279Z" fill="#6C6C6C"/>
<path d="M18.9268 38.1831C19.2809 38.1831 19.5795 38.2355 19.8225 38.3408C20.0709 38.4406 20.269 38.5798 20.417 38.758C20.5703 38.9314 20.6786 39.1257 20.7419 39.3411L19.7274 39.7032C19.6745 39.467 19.5847 39.2887 19.4579 39.1678C19.3311 39.0471 19.1593 38.9865 18.9427 38.9865C18.7419 38.9865 18.5701 39.0338 18.4275 39.1283C18.2847 39.2176 18.1764 39.3567 18.1024 39.5458C18.0285 39.7296 17.9915 39.9607 17.9915 40.239C17.9915 40.5174 18.0285 40.7482 18.1024 40.9319C18.1818 41.1158 18.2927 41.2523 18.4354 41.3416C18.5833 41.431 18.7551 41.4756 18.9506 41.4756C19.1091 41.4756 19.2438 41.4492 19.3549 41.3967C19.4658 41.339 19.5557 41.2575 19.6244 41.1526C19.6983 41.0477 19.7486 40.9215 19.7749 40.7746L20.7578 41.0897C20.6998 41.326 20.5914 41.5333 20.4328 41.7119C20.2743 41.8905 20.0709 42.0294 19.8225 42.1294C19.5741 42.2291 19.2861 42.279 18.9585 42.279C18.5516 42.279 18.1923 42.1975 17.8805 42.0349C17.5688 41.8719 17.3283 41.6382 17.1592 41.3338C16.9901 41.0291 16.9055 40.6618 16.9055 40.2312C16.9055 39.8003 16.9901 39.433 17.1592 39.1283C17.3283 38.8239 17.5661 38.5902 17.8726 38.4272C18.1791 38.2646 18.5305 38.1831 18.9268 38.1831Z" fill="#6C6C6C"/>
<path d="M25.9612 42.2001V36.5371H27.0471V38.9313C27.1739 38.6794 27.3483 38.493 27.5702 38.3721C27.7922 38.2462 28.0432 38.183 28.3233 38.183C28.5981 38.183 28.8412 38.2355 29.0525 38.3407C29.2692 38.4457 29.4383 38.6058 29.5598 38.8212C29.6866 39.0311 29.75 39.2964 29.75 39.6167V42.2001H28.6642V39.9316C28.6642 39.5903 28.598 39.3566 28.4659 39.2305C28.3339 39.0995 28.1648 39.0337 27.9587 39.0337C27.8054 39.0337 27.6575 39.0705 27.5147 39.1442C27.3774 39.2123 27.2638 39.3277 27.1739 39.4906C27.0894 39.6481 27.0471 39.8583 27.0471 40.1206V42.2001H25.9612Z" fill="#6C6C6C"/>
<path d="M35.2285 42.2002V38.2619H36.2033L36.2666 39.4435L36.1321 39.3174C36.1954 39.0602 36.2958 38.8474 36.4332 38.6795C36.5707 38.5113 36.7369 38.3881 36.9325 38.3092C37.1335 38.2251 37.3526 38.1831 37.5904 38.1831C37.8653 38.1831 38.1083 38.2355 38.3195 38.3408C38.5364 38.4458 38.7056 38.6058 38.827 38.8213C38.9539 39.0311 39.0172 39.2965 39.0172 39.6168V42.2002H37.9312V39.9239C37.9312 39.5878 37.8653 39.3567 37.7331 39.2306C37.6009 39.0996 37.4294 39.0338 37.2178 39.0338C37.0699 39.0338 36.9246 39.0706 36.7819 39.1443C36.6445 39.2123 36.531 39.3251 36.4411 39.4829C36.3565 39.6403 36.3142 39.8502 36.3142 40.1129V42.2002H35.2285Z" fill="#6C6C6C"/>
<path d="M46.3028 38.1831C46.7046 38.1831 47.0559 38.2646 47.357 38.4272C47.6637 38.5902 47.9015 38.8239 48.0704 39.1283C48.2449 39.433 48.3321 39.8003 48.3321 40.2312C48.3321 40.6566 48.2449 41.0239 48.0704 41.3338C47.9015 41.6382 47.6637 41.8719 47.357 42.0349C47.0559 42.1975 46.7046 42.279 46.3028 42.279C45.9066 42.279 45.5549 42.1975 45.2486 42.0349C44.9422 41.8719 44.7018 41.6382 44.5273 41.3338C44.3581 41.0239 44.2738 40.6566 44.2738 40.2312C44.2738 39.8003 44.3581 39.433 44.5273 39.1283C44.7018 38.8239 44.9422 38.5902 45.2486 38.4272C45.5549 38.2646 45.9066 38.1831 46.3028 38.1831ZM46.3028 38.9865C46.102 38.9865 45.9302 39.0338 45.7875 39.1283C45.6501 39.2176 45.5444 39.3542 45.4706 39.5379C45.3965 39.7218 45.3595 39.9529 45.3595 40.2312C45.3595 40.5092 45.3965 40.7403 45.4706 40.9242C45.5444 41.1079 45.6501 41.2471 45.7875 41.3416C45.9302 41.431 46.102 41.4756 46.3028 41.4756C46.4983 41.4756 46.6649 41.431 46.8024 41.3416C46.945 41.2471 47.0532 41.1079 47.127 40.9242C47.2012 40.7403 47.2382 40.5092 47.2382 40.2312C47.2382 39.9529 47.2012 39.7218 47.127 39.5379C47.0532 39.3542 46.945 39.2176 46.8024 39.1283C46.6649 39.0338 46.4983 38.9865 46.3028 38.9865Z" fill="#6C6C6C"/>
<path d="M54.6704 36.5371V40.987C54.6704 41.1708 54.702 41.2995 54.7656 41.3731C54.8289 41.4465 54.9345 41.4833 55.0824 41.4833C55.1723 41.4833 55.2464 41.4781 55.3045 41.4677C55.3625 41.4517 55.4366 41.4309 55.5265 41.4045L55.4314 42.1134C55.3416 42.1658 55.2277 42.2053 55.0906 42.2317C54.9584 42.263 54.8262 42.2789 54.6941 42.2789C54.3084 42.2789 54.0256 42.187 53.8458 42.0032C53.6717 41.8142 53.5845 41.515 53.5845 41.1053V36.5371H54.6704Z" fill="#6C6C6C"/>
<path d="M62.2984 38.1831C62.6999 38.1831 63.0514 38.2646 63.3525 38.4272C63.6589 38.5902 63.8967 38.8239 64.0659 39.1283C64.2401 39.433 64.3274 39.8003 64.3274 40.2312C64.3274 40.6566 64.2401 41.0239 64.0659 41.3338C63.8967 41.6382 63.6589 41.8719 63.3525 42.0349C63.0514 42.1975 62.6999 42.279 62.2984 42.279C61.9018 42.279 61.5505 42.1975 61.2442 42.0349C60.9375 41.8719 60.6971 41.6382 60.5229 41.3338C60.3536 41.0239 60.269 40.6566 60.269 40.2312C60.269 39.8003 60.3536 39.433 60.5229 39.1283C60.6971 38.8239 60.9375 38.5902 61.2442 38.4272C61.5505 38.2646 61.9018 38.1831 62.2984 38.1831ZM62.2984 38.9865C62.0976 38.9865 61.9257 39.0338 61.7831 39.1283C61.6456 39.2176 61.54 39.3542 61.4659 39.5379C61.3921 39.7218 61.3551 39.9529 61.3551 40.2312C61.3551 40.5092 61.3921 40.7403 61.4659 40.9242C61.54 41.1079 61.6456 41.2471 61.7831 41.3416C61.9257 41.431 62.0976 41.4756 62.2984 41.4756C62.4938 41.4756 62.6601 41.431 62.7976 41.3416C62.9402 41.2471 63.0485 41.1079 63.1226 40.9242C63.1967 40.7403 63.2334 40.5092 63.2334 40.2312C63.2334 39.9529 63.1967 39.7218 63.1226 39.5379C63.0485 39.3542 62.9402 39.2176 62.7976 39.1283C62.6601 39.0338 62.4938 38.9865 62.2984 38.9865Z" fill="#6C6C6C"/>
<path d="M73.2188 37.3247L73.3458 38.0965C73.3244 38.0965 73.3008 38.0965 73.2742 38.0965C73.2533 38.0913 73.2293 38.0887 73.203 38.0887C72.96 38.0887 72.7777 38.1438 72.6559 38.2543C72.5346 38.3592 72.4736 38.5063 72.4736 38.6952L72.0298 38.514C72.0298 38.3041 72.0721 38.1099 72.1568 37.9312C72.2413 37.7475 72.3654 37.6004 72.5294 37.4903C72.6983 37.3799 72.899 37.3247 73.1315 37.3247C73.142 37.3247 73.1555 37.3247 73.1713 37.3247C73.187 37.3247 73.203 37.3247 73.2188 37.3247ZM71.919 41.4598C72.347 41.4598 72.6773 41.5516 72.9098 41.7355C73.142 41.9193 73.2585 42.1768 73.2585 42.5076C73.2585 42.8068 73.1713 43.0588 72.9967 43.2635C72.8226 43.4736 72.5769 43.6311 72.2597 43.736C71.9478 43.8413 71.586 43.8938 71.1737 43.8938C70.4922 43.8938 69.9926 43.7992 69.6757 43.6102C69.3638 43.4212 69.208 43.1744 69.208 42.8697C69.208 42.6546 69.29 42.4734 69.4537 42.3264C69.623 42.1794 69.9004 42.0979 70.2861 42.0823L70.2465 42.208C69.9716 42.1608 69.7604 42.0715 69.6121 41.9405C69.4695 41.8039 69.3982 41.6175 69.3982 41.3812C69.3982 41.1397 69.4907 40.9428 69.6757 40.7903C69.866 40.6329 70.1221 40.541 70.4446 40.5149L70.9202 40.7352H70.8093C70.582 40.7508 70.4206 40.7981 70.3255 40.877C70.236 40.9507 70.1911 41.0344 70.1911 41.1289C70.1911 41.2395 70.233 41.3235 70.3177 41.3812C70.4075 41.4336 70.5344 41.4598 70.6981 41.4598H71.919ZM71.1816 43.1532C71.4564 43.1532 71.6812 43.1298 71.8556 43.0825C72.035 43.0352 72.1672 42.9747 72.2518 42.9013C72.3417 42.8276 72.3867 42.7465 72.3867 42.6572C72.3867 42.5575 72.347 42.476 72.2676 42.4131C72.1882 42.3551 72.0455 42.3264 71.8395 42.3264H70.5C70.3731 42.3264 70.2674 42.3576 70.1828 42.4209C70.1038 42.4838 70.0641 42.5705 70.0641 42.6807C70.0641 42.8276 70.1619 42.9434 70.3573 43.0275C70.5581 43.1112 70.8329 43.1532 71.1816 43.1532ZM71.1898 38.1832C71.5594 38.1832 71.8792 38.2383 72.1489 38.3488C72.4234 38.4537 72.6324 38.6059 72.775 38.8054C72.9229 39.0052 72.9967 39.2441 72.9967 39.5224C72.9967 39.7952 72.9229 40.0315 72.775 40.2313C72.6324 40.4308 72.4234 40.5856 72.1489 40.6958C71.8792 40.8011 71.5594 40.8535 71.1898 40.8535C70.603 40.8535 70.154 40.7352 69.8421 40.4989C69.5357 40.2575 69.3825 39.9319 69.3825 39.5224C69.3825 39.2441 69.4537 39.0052 69.5964 38.8054C69.7443 38.6059 69.9532 38.4537 70.2225 38.3488C70.4922 38.2383 70.8145 38.1832 71.1898 38.1832ZM71.1898 38.8608C70.9782 38.8608 70.8038 38.9185 70.6666 39.0339C70.5292 39.1496 70.4603 39.3096 70.4603 39.5143C70.4603 39.7193 70.5292 39.882 70.6666 40.0028C70.8038 40.1183 70.9782 40.1759 71.1898 40.1759C71.401 40.1759 71.5729 40.1183 71.7047 40.0028C71.8422 39.882 71.9111 39.7193 71.9111 39.5143C71.9111 39.3096 71.8422 39.1496 71.7047 39.0339C71.5729 38.9185 71.401 38.8608 71.1898 38.8608Z" fill="#6C6C6C"/>
<path d="M82.0001 38.2622L80.3985 42.4445C80.2721 42.8017 80.1296 43.0852 79.9707 43.2951C79.8178 43.5053 79.6376 43.6576 79.4315 43.7521C79.2313 43.8466 78.9904 43.8938 78.7105 43.8938C78.5043 43.8938 78.3145 43.8674 78.1401 43.815C77.971 43.7677 77.8225 43.7048 77.6962 43.626L77.9259 42.8463C78.0264 42.9249 78.132 42.9803 78.2428 43.0116C78.3544 43.0484 78.4807 43.0666 78.6233 43.0666C78.771 43.0666 78.8981 43.0353 79.0037 42.9721C79.1153 42.9092 79.2069 42.7831 79.2815 42.5941L79.4159 42.2554L78.9801 41.2317L77.7671 38.2622H78.972L79.7247 40.6252L79.9316 41.4126L80.1768 40.5779L80.8986 38.2622H82.0001Z" fill="#6C6C6C"/>
</g>
<defs>
<clipPath id="clip0_15132_24115">
<rect width="82" height="44" fill="white"/>
</clipPath>
</defs>
</svg>
