<svg width="40" height="40" viewBox="0 0 40 40" fill="none" xmlns="http://www.w3.org/2000/svg">
<path d="M35.5417 37.5415L30.9167 32.9582C30.3333 33.3471 29.7083 33.6457 29.0417 33.854C28.375 34.0624 27.6944 34.1665 27 34.1665C25 34.1665 23.2986 33.4721 21.8958 32.0832C20.4931 30.6943 19.7917 28.9999 19.7917 26.9999C19.7917 24.9999 20.4931 23.2985 21.8958 21.8957C23.2986 20.4929 25 19.7915 27 19.7915C29 19.7915 30.6944 20.4929 32.0833 21.8957C33.4722 23.2985 34.1667 24.9999 34.1667 26.9999C34.1667 27.6943 34.0556 28.3749 33.8333 29.0415C33.6111 29.7082 33.3194 30.3471 32.9583 30.9582L37.5417 35.5415C37.8194 35.8193 37.9653 36.1457 37.9792 36.5207C37.9931 36.8957 37.8611 37.236 37.5833 37.5415C37.3056 37.8193 36.9653 37.9582 36.5625 37.9582C36.1597 37.9582 35.8194 37.8193 35.5417 37.5415ZM27 31.3332C28.1944 31.3332 29.2153 30.9096 30.0625 30.0624C30.9097 29.2151 31.3333 28.1943 31.3333 26.9999C31.3333 25.7776 30.9097 24.7429 30.0625 23.8957C29.2153 23.0485 28.1944 22.6249 27 22.6249C25.7778 22.6249 24.7431 23.0485 23.8958 23.8957C23.0486 24.7429 22.625 25.7776 22.625 26.9999C22.625 28.1943 23.0486 29.2151 23.8958 30.0624C24.7431 30.9096 25.7778 31.3332 27 31.3332ZM2.54167 28.7915C2.20833 28.5693 2.01389 28.2707 1.95833 27.8957C1.90278 27.5207 1.95833 27.1804 2.125 26.8749L8.45833 16.7915C8.70833 16.4026 9.07639 16.1874 9.5625 16.1457C10.0486 16.104 10.4444 16.2637 10.75 16.6249L14.3333 20.8332L19.6667 12.2082C19.9167 11.7637 20.3056 11.5346 20.8333 11.5207C21.3611 11.5068 21.7639 11.7221 22.0417 12.1665L25.5833 17.3749C25.0833 17.4582 24.6042 17.5832 24.1458 17.7499C23.6875 17.9165 23.2222 18.111 22.75 18.3332L20.9583 15.5415L15.7917 23.9582C15.5417 24.3749 15.1736 24.5971 14.6875 24.6249C14.2014 24.6526 13.8056 24.486 13.5 24.1249L9.83333 19.9165L4.54167 28.3749C4.31944 28.736 4.01389 28.9582 3.625 29.0415C3.23611 29.1249 2.875 29.0415 2.54167 28.7915ZM30.2083 17.8332C29.7361 17.611 29.2431 17.4721 28.7292 17.4165C28.2153 17.361 27.6944 17.3193 27.1667 17.2915L35.4583 4.16653C35.6806 3.80541 35.9861 3.59014 36.375 3.52069C36.7639 3.45125 37.1389 3.54153 37.5 3.79153C37.8056 4.01375 38 4.31236 38.0833 4.68736C38.1667 5.06236 38.0972 5.40264 37.875 5.70819L30.2083 17.8332Z" fill="#191B24"/>
</svg>
