<svg width="18" height="18" viewBox="0 0 18 18" fill="none" xmlns="http://www.w3.org/2000/svg">
<path id="Vector" d="M12.9767 11.4733H12.1867L11.9067 11.2033C13.1067 9.80328 13.7267 7.89328 13.3867 5.86328C12.9167 3.08328 10.5967 0.863282 7.7967 0.523282C3.5667 0.00328186 0.00669983 3.56328 0.5267 7.79328C0.8667 10.5933 3.0867 12.9133 5.8667 13.3833C7.8967 13.7233 9.8067 13.1033 11.2067 11.9033L11.4767 12.1833V12.9733L15.7267 17.2233C16.1367 17.6333 16.8067 17.6333 17.2167 17.2233C17.6267 16.8133 17.6267 16.1433 17.2167 15.7333L12.9767 11.4733ZM6.9767 11.4733C4.4867 11.4733 2.4767 9.46328 2.4767 6.97328C2.4767 4.48328 4.4867 2.47328 6.9767 2.47328C9.4667 2.47328 11.4767 4.48328 11.4767 6.97328C11.4767 9.46328 9.4667 11.4733 6.9767 11.4733Z" fill="#171D1E"/>
</svg>
