<svg width="16" height="16" viewBox="0 0 16 16" fill="none" xmlns="http://www.w3.org/2000/svg">
<path d="M11.0973 11.3023L12.0573 10.3423L8.80392 7.08896L6.61059 9.28229C6.35059 9.54229 5.93059 9.54229 5.67059 9.28229L1.67059 5.27562C1.41059 5.01562 1.41059 4.59562 1.67059 4.33562C1.93059 4.07563 2.35059 4.07563 2.61059 4.33562L6.13725 7.86896L8.33059 5.67563C8.59059 5.41563 9.01059 5.41563 9.27059 5.67563L12.9973 9.39563L13.9573 8.43563C14.1639 8.22896 14.5239 8.37563 14.5239 8.66896V11.529C14.5239 11.7156 14.3773 11.8623 14.1906 11.8623H11.3306C11.0373 11.869 10.8906 11.509 11.0973 11.3023Z" fill="#E64800"/>
</svg>
